<svg xmlns="http://www.w3.org/2000/svg" viewBox="0 0 1920 1080"><defs><style>.cls-1{fill:#f9f9f9;}.cls-2{fill:#f5f5f5;}.cls-3{fill:#ebebeb;}.cls-4{fill:#fafafa;}.cls-5{fill:#e0e0e0;}.cls-6{fill:#34d399;}.cls-7{fill:#263238;}.cls-8{fill:#fbbf24;}.cls-14,.cls-9{fill:#fff;}.cls-10{fill:#e8505b;}.cls-11{opacity:0.6;}.cls-12{fill:#db2777;}.cls-13,.cls-14{font-size:6.3px;font-family:Montserrat-SemiBold, Montserrat;font-weight:600;}.cls-15{fill:#ffbe9d;}.cls-16{fill:#dc2626;}.cls-17{opacity:0.2;}.cls-18{opacity:0.4;}.cls-19{opacity:0.3;}.cls-20{fill:#455a64;}.cls-21{fill:#eb996e;}.cls-22{fill:#161616;}.cls-23{font-size:13.59px;font-family:Montserrat-Bold, Montserrat;font-weight:700;}.cls-24{letter-spacing:0.01em;}.cls-25{letter-spacing:0em;}</style></defs><g id="Character"><path class="cls-1" d="M1920,105.64C1851.71,67.18,1713.63-.73,1516,27c-61.1,8.59-281.37,39.53-336,177.25-45.75,115.35,74.4,180.32,35.62,345.25-27.9,118.62-104.23,145.31-99.1,249.69,4.74,96.43,74.4,165.13,89.81,180.33C1335.59,1107,1622.88,1087.17,1920,933.31Z"/><rect class="cls-2" x="1036.24" y="548.49" width="111.2" height="82.15" transform="translate(2183.67 1179.13) rotate(180)"/><path class="cls-3" d="M1064.1,630.06c.15,0,.27-18.31.27-40.89s-.12-40.9-.27-40.9-.28,18.3-.28,40.9S1063.94,630.06,1064.1,630.06Z"/><rect class="cls-4" x="1045.66" y="611.94" width="8.52" height="9.23" transform="translate(2099.85 1233.12) rotate(180)"/><rect class="cls-3" x="1100.88" y="548.7" width="12.63" height="17.53"/><rect class="cls-3" x="1100.88" y="612.87" width="12.63" height="17.53"/><rect class="cls-3" x="1006.24" y="631.8" width="183.56" height="135.62"/><path class="cls-5" d="M1143.81,766.46c-.2,0-.36-30.23-.36-67.51s.16-67.52.36-67.52.37,30.22.37,67.52S1144,766.46,1143.81,766.46Z"/><rect class="cls-4" x="1160.17" y="736.55" width="14.07" height="15.24"/><rect class="cls-5" x="1062.24" y="632.15" width="20.85" height="28.94"/><rect class="cls-5" x="1062.24" y="738.08" width="20.85" height="28.94"/><path class="cls-3" d="M1333.22,392.9a13.34,13.34,0,0,1-5.34,0,13.34,13.34,0,0,1,5.34,0Z"/><path class="cls-3" d="M1343.89,392.9a13.29,13.29,0,0,1-5.33,0,13.29,13.29,0,0,1,5.33,0Z"/><path class="cls-3" d="M1354.57,392.9a13.34,13.34,0,0,1-5.34,0,13.34,13.34,0,0,1,5.34,0Z"/><path class="cls-3" d="M1365.25,392.9a13.34,13.34,0,0,1-5.34,0,13.34,13.34,0,0,1,5.34,0Z"/><path class="cls-3" d="M1375.92,392.9a13.34,13.34,0,0,1-5.34,0,13.34,13.34,0,0,1,5.34,0Z"/><path class="cls-3" d="M1386.6,392.9a13.34,13.34,0,0,1-5.34,0,13.34,13.34,0,0,1,5.34,0Z"/><path class="cls-3" d="M1397.27,392.9a13.29,13.29,0,0,1-5.33,0,13.29,13.29,0,0,1,5.33,0Z"/><path class="cls-3" d="M1408,392.9a13.34,13.34,0,0,1-5.34,0,13.34,13.34,0,0,1,5.34,0Z"/><path class="cls-3" d="M1418.63,392.9a13.34,13.34,0,0,1-5.34,0,13.34,13.34,0,0,1,5.34,0Z"/><path class="cls-3" d="M1429.3,392.9a13.34,13.34,0,0,1-5.34,0,13.34,13.34,0,0,1,5.34,0Z"/><path class="cls-3" d="M1440,392.9a13.34,13.34,0,0,1-5.34,0,13.34,13.34,0,0,1,5.34,0Z"/><path class="cls-3" d="M1450.65,392.9a13.29,13.29,0,0,1-5.33,0,13.29,13.29,0,0,1,5.33,0Z"/><path class="cls-3" d="M1461.33,392.9a13.34,13.34,0,0,1-5.34,0,13.34,13.34,0,0,1,5.34,0Z"/><path class="cls-3" d="M1472,392.9a13.34,13.34,0,0,1-5.34,0,13.34,13.34,0,0,1,5.34,0Z"/><path class="cls-3" d="M1482.68,392.9a13.34,13.34,0,0,1-5.34,0,13.34,13.34,0,0,1,5.34,0Z"/><path class="cls-3" d="M1493.36,392.9a13.34,13.34,0,0,1-5.34,0,13.34,13.34,0,0,1,5.34,0Z"/><path class="cls-3" d="M1504,392.9a13.29,13.29,0,0,1-5.33,0,13.29,13.29,0,0,1,5.33,0Z"/><path class="cls-3" d="M1514.71,392.9a13.34,13.34,0,0,1-5.34,0,13.34,13.34,0,0,1,5.34,0Z"/><path class="cls-3" d="M1525.39,392.9a13.34,13.34,0,0,1-5.34,0,13.34,13.34,0,0,1,5.34,0Z"/><path class="cls-3" d="M1536.06,392.9a13.29,13.29,0,0,1-5.33,0,13.29,13.29,0,0,1,5.33,0Z"/><path class="cls-3" d="M1546.74,392.9a13.34,13.34,0,0,1-5.34,0,13.34,13.34,0,0,1,5.34,0Z"/><path class="cls-3" d="M1557.42,392.9a13.34,13.34,0,0,1-5.34,0,13.34,13.34,0,0,1,5.34,0Z"/><path class="cls-3" d="M1568.09,392.9a13.34,13.34,0,0,1-5.34,0,13.34,13.34,0,0,1,5.34,0Z"/><path class="cls-3" d="M1570.83,400.51a11.84,11.84,0,0,1,0-5.12,11.84,11.84,0,0,1,0,5.12Z"/><path class="cls-3" d="M1570.83,410.73a11.8,11.8,0,0,1,0-5.11,11.8,11.8,0,0,1,0,5.11Z"/><path class="cls-3" d="M1570.83,421a11.8,11.8,0,0,1,0-5.11,11.8,11.8,0,0,1,0,5.11Z"/><path class="cls-3" d="M1570.83,431.19a11.84,11.84,0,0,1,0-5.12,11.84,11.84,0,0,1,0,5.12Z"/><path class="cls-3" d="M1570.83,441.41a5.94,5.94,0,0,1-.28-2.55,6,6,0,0,1,.28-2.56,6.2,6.2,0,0,1,.28,2.56A6.13,6.13,0,0,1,1570.83,441.41Z"/><path class="cls-3" d="M1572.91,449.65a5.16,5.16,0,0,1-2.08.26h-.27v-.26c0-.2,0-.38,0-.57a5.94,5.94,0,0,1,.28-2.55,6.13,6.13,0,0,1,.28,2.55c0,.19,0,.37,0,.57l-.27-.26A4.78,4.78,0,0,1,1572.91,449.65Z"/><path class="cls-3" d="M1583.59,449.65a13.84,13.84,0,0,1-5.34,0,13.34,13.34,0,0,1,5.34,0Z"/><path class="cls-3" d="M1594.26,449.65a13.84,13.84,0,0,1-5.34,0,13.34,13.34,0,0,1,5.34,0Z"/><path class="cls-3" d="M1604.94,449.65a13.84,13.84,0,0,1-5.34,0,13.34,13.34,0,0,1,5.34,0Z"/><path class="cls-3" d="M1615.61,449.65a13.79,13.79,0,0,1-5.33,0,13.29,13.29,0,0,1,5.33,0Z"/><path class="cls-3" d="M1626.29,449.65a13.84,13.84,0,0,1-5.34,0,13.34,13.34,0,0,1,5.34,0Z"/><path class="cls-3" d="M1637,449.65a13.84,13.84,0,0,1-5.34,0,13.34,13.34,0,0,1,5.34,0Z"/><path class="cls-3" d="M1647.64,449.65a13.84,13.84,0,0,1-5.34,0,13.34,13.34,0,0,1,5.34,0Z"/><path class="cls-3" d="M1658.32,449.65a13.84,13.84,0,0,1-5.34,0,13.34,13.34,0,0,1,5.34,0Z"/><path class="cls-3" d="M1662.47,455.9a11.84,11.84,0,1,1,.28-2.56A6.2,6.2,0,0,1,1662.47,455.9Z"/><path class="cls-3" d="M1662.47,466.12a11.8,11.8,0,1,1,.28-2.55A6.13,6.13,0,0,1,1662.47,466.12Z"/><path class="cls-3" d="M1662.47,476.35a6.2,6.2,0,0,1-.28-2.56,1.29,1.29,0,1,1,.56,0A6.2,6.2,0,0,1,1662.47,476.35Z"/><path class="cls-3" d="M1662.47,486.58a11.84,11.84,0,1,1,.28-2.56A6.2,6.2,0,0,1,1662.47,486.58Z"/><path class="cls-3" d="M1662.47,496.8a11.8,11.8,0,1,1,.28-2.55A6.13,6.13,0,0,1,1662.47,496.8Z"/><path class="cls-3" d="M1662.47,507a6.2,6.2,0,0,1-.28-2.56,1.29,1.29,0,1,1,.56,0A6.2,6.2,0,0,1,1662.47,507Z"/><path class="cls-3" d="M1662.47,517.26a11.84,11.84,0,1,1,.28-2.56A6.2,6.2,0,0,1,1662.47,517.26Z"/><path class="cls-3" d="M1662.47,527.48a11.8,11.8,0,1,1,.28-2.55A6.13,6.13,0,0,1,1662.47,527.48Z"/><path class="cls-3" d="M1662.47,537.71a6.2,6.2,0,0,1-.28-2.56,1.29,1.29,0,1,1,.56,0A6.2,6.2,0,0,1,1662.47,537.71Z"/><path class="cls-3" d="M1662.47,547.94a11.84,11.84,0,1,1,.28-2.56A6.2,6.2,0,0,1,1662.47,547.94Z"/><path class="cls-3" d="M1662.47,558.16a11.8,11.8,0,1,1,.28-2.55A6.13,6.13,0,0,1,1662.47,558.16Z"/><path class="cls-6" d="M1389.24,410.35s-8.29-4.39-16.41,14.38-10.91,29.46-10.91,29.46-2.23,4-5.14,1.7-7.2-9-11.71-7.39c-4.67,1.67-5.83,6.9-4.3,14.34s4.25,23.86,4.49,25.35-.46,3.68-2.71,2.44-15.56-13.38-21.2-7,2.17,26.46,3,28.67.43,3.2-.64,3.85-5.15-3.85-9.08-7.15-9.11-6.48-12-2.53-2.7,19.43,14.65,43.29l8.79,10.55,14-1.81c29.78-5.62,41.16-16.61,41.92-21.4s-5.26-6-10.49-6.19-11.41.28-11.72-.9.14-2.15,2.33-3.2,22.35-10.28,22.93-18.64-17.81-8.48-20.32-9.08-1.4-2.67-.18-3.56,15.12-10.91,21.61-15.25,9.46-8.87,7.3-13.18-10-2.16-13.78-2.47-2.46-4.65-2.46-4.65,5.74-9.54,13.5-28.45-1.63-21.27-1.63-21.27"/><path class="cls-5" d="M1326.5,557.53c5.75-13.87,13.87-33,22.92-54s17.21-40.13,23-54c2.91-6.9,5.26-12.5,6.9-16.39.81-1.92,1.44-3.42,1.88-4.45.21-.5.38-.88.5-1.16s.18-.39.18-.39,0,.14-.14.41l-.45,1.17-1.8,4.49c-1.56,3.89-3.87,9.51-6.75,16.44-5.76,13.87-13.88,33-22.92,54s-17.22,40.14-23.06,54"/><path class="cls-5" d="M1350.67,458.15a3.31,3.31,0,0,1,.44.88c.26.58.6,1.43,1,2.48.82,2.1,1.86,5,3,8.29s2,6.11,2.76,8.35l.84,2.53a4.06,4.06,0,0,1,.27.94,3.73,3.73,0,0,1-.44-.88c-.26-.58-.6-1.43-1-2.48-.79-2.11-1.8-5.06-2.89-8.32s-2.07-6.09-2.82-8.32l-.87-2.53A4.29,4.29,0,0,1,1350.67,458.15Z"/><path class="cls-5" d="M1360.26,481.76c0-.12,6.17-2.46,13.88-5.22s14-4.92,14-4.8-6.16,2.46-13.88,5.23S1360.31,481.88,1360.26,481.76Z"/><path class="cls-5" d="M1344.85,513.5a5.27,5.27,0,0,1,1-.13l2.82-.21c2.38-.18,5.67-.43,9.28-.84s6.88-.87,9.24-1.23l2.8-.41a4.18,4.18,0,0,1,1-.1,4.19,4.19,0,0,1-1,.27c-.65.15-1.6.35-2.77.57-2.35.44-5.61,1-9.24,1.36s-6.93.61-9.32.71c-1.19,0-2.16.07-2.83.06A3.87,3.87,0,0,1,1344.85,513.5Z"/><path class="cls-5" d="M1331.27,494a3.91,3.91,0,0,1,.62.71c.37.47.9,1.17,1.54,2,1.28,1.72,3,4.11,4.93,6.78s3.61,5.09,4.82,6.85c.6.89,1.09,1.61,1.41,2.11a3.13,3.13,0,0,1,.46.81,3.71,3.71,0,0,1-.61-.71c-.38-.47-.9-1.16-1.54-2-1.29-1.72-3-4.12-4.94-6.78s-3.6-5.09-4.81-6.86c-.61-.88-1.09-1.6-1.42-2.11A3.35,3.35,0,0,1,1331.27,494Z"/><path class="cls-5" d="M1314,520.34a6,6,0,0,1,.78.91l2,2.59c1.66,2.2,3.92,5.26,6.39,8.65s4.69,6.47,6.28,8.72l1.85,2.67a5.64,5.64,0,0,1,.63,1,6.52,6.52,0,0,1-.78-.92l-2-2.59c-1.66-2.19-3.92-5.25-6.39-8.64s-4.69-6.47-6.28-8.72c-.74-1.07-1.36-2-1.86-2.67A5.87,5.87,0,0,1,1314,520.34Z"/><path class="cls-5" d="M1331.61,544.19a6.94,6.94,0,0,1,1.3-.19l3.57-.39c3-.33,7.16-.8,11.73-1.43s8.7-1.3,11.69-1.81l3.53-.59a5.74,5.74,0,0,1,1.31-.16,7,7,0,0,1-1.27.34c-.82.19-2,.44-3.51.73-3,.59-7.09,1.32-11.68,1.95s-8.75,1.05-11.77,1.29c-1.51.12-2.74.21-3.58.25A6.07,6.07,0,0,1,1331.61,544.19Z"/><path class="cls-2" d="M1700,583.19c0-22.12-20.87-39.58-44.78-35.28-15,2.71-27,14.47-29.66,28.91a34.49,34.49,0,0,0,4.6,24.52h0l.11.14c1.44,2.32,3.24,4,5.06,6.42l21.78,27.64a7,7,0,0,0,10.81,0l21.42-27.18a77.72,77.72,0,0,0,5.45-6.92l.08-.1h0A34.57,34.57,0,0,0,1700,583.19Zm-37.51,15.64c-9.12,0-16.51-7.08-16.51-15.81s7.39-15.81,16.51-15.81S1679,574.29,1679,583,1671.59,598.83,1662.47,598.83Z"/><path class="cls-2" d="M1522.87,423.42v42.26a1.69,1.69,0,0,0,1.72,1.65h92.5a1.69,1.69,0,0,0,1.72-1.67l-.21-15.48a1.61,1.61,0,0,0-.35-1l-13.26-17a1.73,1.73,0,0,0-1.37-.66l-15.28-.12a1.68,1.68,0,0,1-1.71-1.64v-6.39a1.69,1.69,0,0,0-1.72-1.65h-60.32A1.69,1.69,0,0,0,1522.87,423.42Z"/><path class="cls-3" d="M1590.93,435.14V448.7a1,1,0,0,0,1,.95l20.42-.35a1,1,0,0,0,.8-1.48l-9.55-13.49a1,1,0,0,0-.84-.41l-10.87.28A1,1,0,0,0,1590.93,435.14Z"/><rect class="cls-2" x="1521.01" y="468.61" width="99.64" height="2.94"/><ellipse class="cls-3" cx="1544.1" cy="469.74" rx="9.86" ry="9.44"/><path class="cls-4" d="M1549.9,469.74a5.81,5.81,0,1,1-5.8-5.56A5.68,5.68,0,0,1,1549.9,469.74Z"/><path class="cls-3" d="M1586.55,467.33c-.25,0-.45-10.2-.45-22.78s.2-22.78.45-22.78.45,10.2.45,22.78S1586.8,467.33,1586.55,467.33Z"/><ellipse class="cls-3" cx="1597.81" cy="469.74" rx="9.86" ry="9.44"/><path class="cls-4" d="M1603.61,469.74a5.81,5.81,0,1,1-5.8-5.56A5.69,5.69,0,0,1,1603.61,469.74Z"/><path class="cls-3" d="M1597.84,452.32c0,.24-1.42.43-3.16.43s-3.15-.19-3.15-.43,1.41-.43,3.15-.43S1597.84,452.08,1597.84,452.32Z"/><path class="cls-6" d="M1120.34,762.91c14.39-9.55,17.71-27.37,17.2-43.39-.09-2.68.23-5.5-1.09-7.85s-4.41-4-6.92-2.84c-2.07.92-3,3.23-4.15,5.14a16.12,16.12,0,0,1-6.57,6c-1.78.88-4,1.41-5.74.48-2.4-1.29-2.67-4.47-2.65-7.13l.15-14.88a23.56,23.56,0,0,0-.81-7.9,8.39,8.39,0,0,0-5.39-5.6c-2.64-.72-5.91.73-6.48,3.33a22.94,22.94,0,0,0-.09,3.32,2.78,2.78,0,0,1-1.72,2.62c-1.11.31-2.22-.45-3-1.23-2.86-2.69-4.79-6.16-6.6-9.61s-3.56-7-6.15-9.91-6.17-5.27-10.15-5.5-8.22,2.11-9.24,5.84,1.25,7.56,3.72,10.61a61.33,61.33,0,0,0,12.86,11.83,5,5,0,0,1,2.16,2.23c.59,1.77-1.17,3.53-3,4.1-2.07.66-4.32.44-6.48.68s-4.52,1.15-5.34,3.1c-1.15,2.72,1.21,5.58,3.54,7.45a53.45,53.45,0,0,0,15.69,8.74c2,.73,4.18,1.36,5.83,2.74s2.62,3.78,1.62,5.65-3.56,2.46-5.7,2.07-4-1.5-6.08-2.25c-3.81-1.39-8.74-1.15-11.2,2a8.11,8.11,0,0,0-1,7.44,19.23,19.23,0,0,0,4.18,6.59,53.55,53.55,0,0,0,22.75,15.42c8.84,3,17,3.8,25.85.74"/><path class="cls-7" d="M1119.39,767.42c-.58-6.35-.88-6.48-3.33-14.57a233,233,0,0,0-9.78-25.69l-2.93-6.61c-1-2.17-1.92-4.32-3-6.37a116.54,116.54,0,0,0-6.86-11.42c-2.37-3.53-4.75-6.8-7-9.84s-4.42-5.83-6.5-8.3a95.71,95.71,0,0,0-10.72-10.92c-1.36-1.19-2.45-2.08-3.2-2.68l-.85-.67a1.37,1.37,0,0,0-.31-.21l.27.25.82.71c.73.62,1.8,1.53,3.14,2.74a101.58,101.58,0,0,1,10.57,11c2.06,2.47,4.19,5.27,6.43,8.32s4.6,6.32,6.95,9.85a120.28,120.28,0,0,1,6.81,11.39c1.06,2,2,4.17,3,6.34s1.94,4.38,2.93,6.61a238.23,238.23,0,0,1,9.8,25.63c2.47,8.06,2.79,8.15,3.42,14.48"/><path class="cls-7" d="M1100.21,714.16a5.12,5.12,0,0,0,.27-1.13c.15-.73.33-1.8.53-3.13.4-2.64.83-6.32,1.28-10.37s.93-7.71,1.38-10.35c.21-1.32.4-2.38.54-3.12a4.42,4.42,0,0,0,.16-1.15A5.21,5.21,0,0,0,1104,686c-.2.73-.44,1.79-.71,3.1-.53,2.63-1.07,6.3-1.53,10.35s-.83,7.62-1.13,10.39c-.14,1.25-.26,2.3-.36,3.14A4.42,4.42,0,0,0,1100.21,714.16Z"/><path class="cls-7" d="M1064.53,707.65a6.61,6.61,0,0,0,1.42.17c.92.08,2.24.19,3.88.38,3.26.35,7.76,1,12.69,1.89s9.36,1.93,12.54,2.75c1.59.4,2.87.75,3.76,1a6.48,6.48,0,0,0,1.39.33,8.25,8.25,0,0,0-1.33-.51c-.87-.3-2.14-.71-3.73-1.15-3.16-.91-7.59-2-12.53-2.9s-9.47-1.49-12.76-1.75c-1.64-.14-3-.2-3.9-.22A8.34,8.34,0,0,0,1064.53,707.65Z"/><path class="cls-7" d="M1115.62,752.22s.1-.13.25-.41.37-.74.61-1.24c.53-1.07,1.26-2.65,2.12-4.6,1.74-3.92,4-9.39,6.33-15.47s4.53-11.56,6.18-15.51c.81-1.91,1.48-3.49,2-4.66.21-.51.38-.93.53-1.27a1.65,1.65,0,0,0,.15-.46s-.1.14-.25.42l-.61,1.23c-.53,1.08-1.25,2.65-2.12,4.61-1.74,3.91-4,9.39-6.33,15.47s-4.53,11.56-6.18,15.5c-.81,1.92-1.47,3.49-2,4.66l-.52,1.28A2.27,2.27,0,0,0,1115.62,752.22Z"/><path class="cls-7" d="M1068.23,737.42a2.43,2.43,0,0,0,.47.18l1.38.45,5.07,1.6c4.29,1.34,10.18,3.27,16.69,5.4s12.44,4,16.75,5.28c2.16.63,3.91,1.13,5.13,1.44l1.4.36a1.62,1.62,0,0,0,.5.09,1.86,1.86,0,0,0-.47-.18l-1.37-.45L1108.7,750c-4.28-1.35-10.18-3.28-16.69-5.41s-12.43-4-16.75-5.28c-2.16-.63-3.91-1.12-5.13-1.44l-1.4-.36A1.54,1.54,0,0,0,1068.23,737.42Z"/><path class="cls-8" d="M1293.7,767.42H1145.12c-17.95-.08-33.13-14.74-33-31.94L1113.65,377c.08-17.21,14.7-31.09,32.67-31l149.26.67c18,.07,32.44,14.08,32.37,31.27l-1.59,358.46C1326.29,753.61,1311.66,767.5,1293.7,767.42Z"/><path class="cls-2" d="M1295.37,360.29l-28.94-.13a7,7,0,0,0-7.06,7l0,5a7,7,0,0,1-7.06,7l-56.41-.25a7,7,0,0,1-7-7.07l0-5a7,7,0,0,0-7-7.07l-10.18,0-25.33-.11c-12.58-.06-22.82,9.67-22.87,21.72L1122,731.23c0,12,10.09,21.85,22.67,21.91l149,.65c12.58.06,22.83-9.67,22.88-21.72L1318,382.19C1318.09,370.15,1307.94,360.34,1295.37,360.29Z"/><path class="cls-2" d="M1232.15,687.68c-.17,4.22-.34,8.18-.47,11.48h21.4l-2.62-12.59Z"/><path class="cls-2" d="M1145.18,693l.19,6.21h84.17c.15-3.49.3-7.36.46-11.35Z"/><polygon class="cls-2" points="1251.53 686.5 1254.17 699.16 1293.62 699.16 1293.14 683.98 1251.53 686.5"/><polygon class="cls-2" points="1234.28 509.59 1241.74 468.16 1222.2 466.77 1222.2 509.59 1234.28 509.59"/><polygon class="cls-2" points="1143.42 669.95 1122.22 677.9 1122.15 692.29 1144.05 690.97 1143.42 669.95"/><polygon class="cls-2" points="1143.32 666.71 1142.16 628.13 1142.15 628.13 1142.15 614.52 1122.49 616.51 1122.23 674.6 1143.32 666.69 1143.32 666.71"/><polygon class="cls-2" points="1142.15 584.14 1122.64 581.67 1122.5 613.43 1142.15 611.43 1142.15 584.14"/><polygon class="cls-2" points="1287.54 615.09 1286.72 626.15 1263.68 628.53 1265.46 637.28 1291.62 635.39 1291.22 622.84 1293.31 614.53 1287.54 615.09"/><polygon class="cls-2" points="1246.02 638.68 1264.39 637.36 1260.39 617.72 1244.35 619.27 1246.02 638.68"/><polygon class="cls-2" points="1246.19 640.72 1247.6 657.1 1250.09 679.56 1251.11 684.48 1293.08 681.94 1291.68 637.44 1246.19 640.72"/><path class="cls-2" d="M1174,563.4l1.61,2.66-32.36,18.08V627l34.15-2.31,65.83-6.37-2.41-28.12-62.89-7.86.42-3,62.21,7.79-4.08-47.59-61.57,5.67-.21-2,61.6-5.68-2.13-24.82h-59.22l-52,9.06-.26,56.86,19.7,2.49Zm-27.44,59.54s.24-35.37,0-36.69l26.41-13.46,3.42,48.34Z"/><polygon class="cls-2" points="1285.38 615.3 1261.46 617.61 1263.27 626.52 1284.72 624.3 1285.38 615.3"/><path class="cls-2" d="M1232.45,680.1c-.07,1.86-.15,3.71-.22,5.52l17.81-1.08-.92-4.4Z"/><polygon class="cls-2" points="1194.09 509.59 1197.23 495.96 1221.14 495.96 1221.14 466.7 1146.38 461.39 1146.38 488.87 1123.03 493.93 1122.92 518.6 1174.63 509.59 1194.09 509.59"/><path class="cls-2" d="M1244,428.15l-.63-2.5,28.54-10.82-18.56-35.71a7,7,0,0,1-1,.08l-31.55-.14.86,50Z"/><path class="cls-2" d="M1287.24,409l0-48.76-20.77-.09a7,7,0,0,0-7.06,7l0,5a7,7,0,0,1-3.06,5.77l18.58,35.73Z"/><path class="cls-2" d="M1179.92,411.1l-2.41-51.34-5.78,0-22.58-.1-9.62,45.9ZM1174.77,365l.77,41.8-30-4.21L1152.1,365Z"/><path class="cls-2" d="M1181,411.25v.43c0,4,.13,11.22.2,18.93l39.31-1.54-.86-50-23.79-.1a7,7,0,0,1-7-7.07l0-5a7,7,0,0,0-7-7.07h-3.33l2.42,51.48Z"/><path class="cls-2" d="M1136.36,405.11l9.52-45.46c-12.34.21-22.3,9.82-22.35,21.7l-.1,22.66.1-.67Z"/><polygon class="cls-2" points="1143.18 461.17 1123.18 459.75 1123.04 490.78 1143.18 486.42 1143.18 461.17"/><polygon class="cls-2" points="1136.15 406.11 1123.42 404.36 1123.2 454.62 1125.94 454.82 1136.15 406.11"/><polygon class="cls-2" points="1176.54 666.13 1176.87 625.77 1143.23 628.05 1144.42 667.58 1176.54 666.13"/><path class="cls-2" d="M1182.72,656.81l47.65,21.87c.57-14.29,1.07-27.65,1-28.5l1-.06.5-1c.68.32.68.32.33,10.06-.2,5.44-.48,12.67-.77,19.9H1249l-2.44-21.92-3.24-37.83-62.25,6Z"/><polygon class="cls-2" points="1299.51 589.84 1298.97 584.52 1241.86 590.22 1244.27 618.25 1293.58 613.48 1299.51 589.84"/><polygon class="cls-2" points="1221.14 499.03 1199.8 499.03 1197.37 509.59 1221.14 509.59 1221.14 499.03"/><path class="cls-2" d="M1290.69,502.59l-53.43-3.54-2.17,12.1,2.24,26.24,56.35-5.19Zm-51.46,8.53,2.87-7.63,46.4,2.81,2.69,21.83-50.39,5.73Z"/><polygon class="cls-2" points="1296.23 557.44 1293.89 534.23 1237.51 539.43 1239.63 564.13 1296.23 557.44"/><polygon class="cls-2" points="1144.11 693.01 1122.24 694.34 1122.15 692.97 1122.12 699.16 1144.3 699.16 1144.11 693.01"/><path class="cls-2" d="M1317.64,397.48l.32.78.07-16.07c.06-12-10.09-21.85-22.66-21.9l-7.1,0,0,48.35Z"/><path class="cls-2" d="M1230.32,679.79l-48.63-22.32-1.71-32-2,.2-.34,41.41-33.15,1.51,0,.92v0h0l.64,21.35,85-5.15Q1230.21,682.78,1230.32,679.79Zm-83.79-8.55,46.4-3.12,30.18,13.41-76.58,4Z"/><path class="cls-2" d="M1303.82,451.18l2-11.31c-17.44-6-18.65-23.38-18.6-28.66l-11.38,4.32,17.14,33Z"/><polygon class="cls-2" points="1241.6 587.16 1265.31 584.79 1260.64 564.74 1239.89 567.18 1241.6 587.16"/><polygon class="cls-2" points="1290.78 468.5 1246.49 468.5 1242.81 468.24 1237.81 496.01 1290.38 499.5 1289.16 487.42 1294.33 469.58 1290.78 468.5"/><path class="cls-2" d="M1289.69,463.39l.55-13.26-17.4-33.47-27,10.23,9.28,36.5Zm-17.9-42.66,16,29.07-2.31,9.06-27.29-1-6.82-27.49Z"/><polygon class="cls-2" points="1296.58 623.38 1297.4 649.42 1316.59 648.38 1316.65 649.41 1297.43 650.44 1298.41 681.61 1316.55 680.51 1316.68 682.55 1298.47 683.66 1298.96 699.16 1316.64 699.16 1317.02 612.24 1298.94 613.99 1296.58 623.38"/><path class="cls-2" d="M1180,412.14l-40.63-5.59L1129.16,455l51,3.62C1180.34,451.19,1180.16,428.29,1180,412.14Z"/><polygon class="cls-2" points="1246.78 463.39 1252.93 463.39 1244.23 429.17 1221.62 430.05 1222.16 461.64 1246.78 463.39"/><path class="cls-2" d="M1122,724.05l0,7.18c0,.22,0,.44,0,.66Z"/><path class="cls-2" d="M1181.17,458.73l39.92,2.84-.54-31.47-39.33,1.53C1181.31,442.28,1181.34,453.63,1181.17,458.73Z"/><polygon class="cls-2" points="1296.54 560.5 1261.7 564.61 1266.38 584.69 1298.66 581.47 1296.54 560.5"/><path class="cls-2" d="M1306,438.85l2.23-12.69,9.62.72.12-27.32-29.67,11.24C1287.69,430,1300.29,436.79,1306,438.85Z"/><polygon class="cls-2" points="1294.57 487.87 1295.78 499.86 1317.51 501.3 1317.62 476.62 1299.42 471.12 1294.57 487.87"/><path class="cls-2" d="M1304.91,590.21l-5.71,22.73,17.82-1.73.11-23.83c-5.47-1.38-10.24-2.51-12.81-3Z"/><polygon class="cls-2" points="1292.88 463.78 1317.64 471.27 1317.7 457.78 1293.38 451.76 1292.88 463.78"/><path class="cls-2" d="M1304,581.28c2,.29,5.78,1.06,13.13,2.91l.23-52.12-18.17,1.67Z"/><polygon class="cls-2" points="1299 531.71 1317.38 530.01 1317.5 504.37 1296.09 502.95 1299 531.71"/><path class="cls-2" d="M1308,439.49c3.49,1,6.73,1.8,9.73,2.38l.06-12.94-7.83-.59Z"/><path class="cls-2" d="M1305.89,451.69l11.83,2.93,0-11.7c-3.06-.59-6.36-1.38-9.91-2.41Z"/><path class="cls-9" d="M1144.11,693l.19,6.15h1.07l-.19-6.21,84.82-5.14c-.16,4-.31,7.86-.46,11.35h2.14c.13-3.3.3-7.26.47-11.48l18.31-1.11,2.62,12.59h1.09l-2.64-12.66,41.61-2.52.48,15.18H1299l-.49-15.5,18.21-1.11-.13-2-18.14,1.1-1-31.17,19.22-1-.07-1-19.18,1-.82-26,2.36-9.39,18.08-1.75v-1l-17.82,1.73,5.71-22.73-.59-5.81c2.57.47,7.34,1.6,12.81,3v-3.19c-7.35-1.85-11.14-2.62-13.13-2.91l-4.81-47.54,18.17-1.67V530l-18.38,1.7L1296.09,503l21.41,1.42V501.3l-21.73-1.44-1.21-12,4.85-16.75,18.2,5.5,0-5.35-24.76-7.49.5-12,24.32,6,0-3.16-11.83-2.93,2-11.18c3.55,1,6.85,1.82,9.91,2.41v-1.05c-3-.58-6.24-1.36-9.73-2.38l2-11.15,7.83.59v-2.05l-9.62-.72L1306,438.85c-5.7-2.06-18.3-8.82-17.7-28.05L1318,399.56v-1.3l-.32-.78-29.33,11.12,0-48.35h-1.07l0,48.76-12.37,4.68L1256.29,378a7,7,0,0,1-3,1.16l18.56,35.71-28.54,10.82.63,2.5-22.37.88-.86-50h-1.07l.86,50-39.31,1.54c-.07-7.71-.15-14.92-.2-18.93v-.43h0l-2.42-51.48h-1.07l2.41,51.34-40.39-5.56,9.62-45.9h-2.75l-.52,0-9.52,45.46-12.83-1.77-.1.67v.35l12.73,1.75-10.21,48.71-2.74-.2,0,5.13,20,1.42v25.25L1123,490.78v3.15l23.35-5.06V461.39l74.76,5.31V496h-23.91l-3.14,13.63h-19.46l-51.71,9v3.12l52-9.06h59.22l2.13,24.82-61.6,5.68.21,2,61.57-5.67,4.08,47.59-62.21-7.79-.42,3,62.89,7.86,2.41,28.12-65.83,6.37L1143.22,627V584.14l32.36-18.08L1174,563.4l-31.62,17.67-19.7-2.49v3.09l19.51,2.47v27.29l-19.65,2v3.08l19.66-2v13.61h0l1.16,38.58v0l-21.09,7.91v3.3l21.2-7.95.63,21-21.9,1.32V693l.09,1.37Zm88.12-7.39c.07-1.81.15-3.66.22-5.52l16.67,0,.92,4.4Zm18.88-1.14-1-4.92-2.49-22.46-1.41-16.38,45.49-3.28,1.4,44.5Zm10.35-66.87,23.92-2.31-.66,9-21.45,2.22Zm-1.07.11,4,19.64L1246,638.68l-1.67-19.41Zm31.23,17.67-26.16,1.89-1.78-8.75,23-2.38.82-11.06,5.77-.56-2.09,8.31Zm-31-70.66,4.67,20.06-23.71,2.37-1.71-20Zm5.74,20-4.68-20.08,34.84-4.11,2.12,21Zm24-85.19L1237.81,496l5-27.77,3.68.26h44.29l3.55,1.08-5.17,17.84Zm-3.17-88.29c0,5.28,1.16,22.7,18.6,28.66l-2,11.31L1293,448.49l-17.14-33Zm-14.37,5.45,17.4,33.47-.55,13.26h-34.56l-9.28-36.5Zm-28.61,12.51,8.7,34.22h-6.15l-24.62-1.75-.54-31.59Zm-23.68.93.54,31.47-39.92-2.84c.17-5.1.14-16.45,0-27.1Zm-81.23-23.55,40.63,5.59c.21,16.15.39,39.05.18,46.52l-51-3.62Zm102.42,61.61-7.46,41.43H1222.2V466.77ZM1199.8,499h21.34v10.56h-23.77Zm35.29,12.12,2.17-12.1,53.43,3.54,3,29.61-56.35,5.19Zm58.8,23.08,2.35,23.21-56.61,6.68-2.12-24.69Zm-52,56,57.11-5.69.54,5.32-5.93,23.64-49.31,4.77Zm4.67,67,2.44,21.92h-16.48c.29-7.23.57-14.46.77-19.9.35-9.74.35-9.74-.33-10.06l-.5,1-1,.06c0,.85-.46,14.21-1,28.5l-47.65-21.87L1181,625.39l62.25-6Zm-69.66-31.43-.33,40.35-32.12,1.46-1.19-39.53Zm-32.39,43.78h0v0l0-.92,33.15-1.51.34-41.41,2-.2,1.71,32,48.63,22.32q-.1,3-.23,6l-85,5.15Z"/><polygon class="cls-3" points="1192.93 668.12 1146.53 671.24 1146.53 685.5 1223.11 681.53 1192.93 668.12"/><polygon class="cls-3" points="1288.5 506.3 1242.1 503.49 1239.23 511.12 1240.8 533.86 1291.19 528.13 1288.5 506.3"/><path class="cls-3" d="M1144.65,753.14l149,.65c12.58.06,22.83-9.67,22.88-21.72l.15-32.91H1122.12l-.11,24.89v7.84C1122.33,743.63,1132.31,753.08,1144.65,753.14Z"/><polygon class="cls-3" points="1175.54 406.77 1174.77 364.97 1152.1 364.97 1145.53 402.56 1175.54 406.77"/><polygon class="cls-3" points="1285.43 458.86 1287.74 449.8 1271.79 420.73 1251.32 430.38 1258.14 457.87 1285.43 458.86"/><path class="cls-3" d="M1146.53,586.25c.24,1.32,0,36.69,0,36.69l29.83-1.81-3.42-48.34Z"/><polygon class="cls-3" points="1246.03 614.97 1244.45 593.05 1295.61 586.75 1295.61 590.53 1289.42 610.69 1246.03 614.97"/><path class="cls-10" d="M1208.18,433.21a6.24,6.24,0,1,1-6.23-6A6.11,6.11,0,0,1,1208.18,433.21Z"/><g class="cls-11"><path class="cls-9" d="M1208.17,433a6.07,6.07,0,0,1-6,6.22,6,6,0,1,1,6-6.22Z"/></g><ellipse class="cls-12" cx="1201.95" cy="433" rx="4.14" ry="3.97"/><path class="cls-12" d="M1298.27,671.64a2.66,2.66,0,1,1-2.66-2.55A2.61,2.61,0,0,1,1298.27,671.64Z"/><path class="cls-12" d="M1294,670.81l-.64-14.29-45,2.09a7,7,0,0,1-3.4-.69l-63.79-30.87a4.4,4.4,0,0,1-2.53-3.72L1170,462a2.61,2.61,0,0,1,.84-2.07,2.94,2.94,0,0,1,2.18-.76l27.34,1.94V432.5h3.2v29a2.65,2.65,0,0,1-.9,2,2.93,2.93,0,0,1-2.13.72l-27.31-1.94,8.66,160.89a1.34,1.34,0,0,0,.78,1.15l63.79,30.86a3.69,3.69,0,0,0,1.8.37l45.35-2.12a2.9,2.9,0,0,1,2,.71,2.64,2.64,0,0,1,.92,1.89l.66,14.65Z"/><ellipse class="cls-12" cx="1175.21" cy="532.06" rx="8.07" ry="7.73"/><ellipse class="cls-4" cx="1175.21" cy="532.06" rx="5.61" ry="5.37"/><path class="cls-12" d="M1175.21,537.82a5.76,5.76,0,1,1,6-5.76A5.9,5.9,0,0,1,1175.21,537.82Zm0-10.75a5,5,0,1,0,5.21,5A5.11,5.11,0,0,0,1175.21,527.07Z"/><path class="cls-10" d="M1222.76,499.63h-38.44a3.31,3.31,0,0,0-3.38,3.24V516.2a3.31,3.31,0,0,0,3.38,3.24h.45v3.18l3.85-3.18h34.14a3.32,3.32,0,0,0,3.38-3.24V502.87A3.32,3.32,0,0,0,1222.76,499.63Z"/><path class="cls-12" d="M1222.76,499.63h-38.44a3.31,3.31,0,0,0-3.38,3.24V516.2a3.31,3.31,0,0,0,3.38,3.24h.45v3.18l3.85-3.18h34.14a3.32,3.32,0,0,0,3.38-3.24V502.87A3.32,3.32,0,0,0,1222.76,499.63Z"/><path class="cls-12" d="M1210.06,413.15a7.9,7.9,0,0,0-9.54-7.51,7.82,7.82,0,0,0-6.32,6.15,7.39,7.39,0,0,0,1,5.23h0l0,0c.31.49.69.85,1.08,1.37l4.64,5.88a1.48,1.48,0,0,0,2.3,0l4.56-5.79a14.92,14.92,0,0,0,1.16-1.47l0,0h0A7.45,7.45,0,0,0,1210.06,413.15Zm-8,3.33a3.37,3.37,0,1,1,3.52-3.36A3.44,3.44,0,0,1,1202.07,416.48Z"/><ellipse class="cls-12" cx="1142.7" cy="722.24" rx="8.94" ry="8.56"/><path class="cls-4" d="M1139.09,723.8a14.65,14.65,0,0,1,2.29-.13c1.46,0,3.55-.08,6-.1l-.18.38-2.28-2.52-.15-.16.14-.17c.72-.86,1.47-1.76,2.26-2.69l.21.43h-1l-7.33,0,.25-.24c0,2.6-.06,4.79-.1,6.32a16,16,0,0,1-.15,2.42,13.2,13.2,0,0,1-.15-2.42c0-1.53-.08-3.72-.1-6.32v-.23h.25l7.33,0H1148l-.36.43-2.27,2.68v-.32l2.25,2.55.33.39h-.52c-2.5,0-4.59,0-6-.09A13.72,13.72,0,0,1,1139.09,723.8Z"/><path class="cls-12" d="M1287.27,707.63h-27a5.07,5.07,0,0,0-5.17,5V733a5.06,5.06,0,0,0,5.17,4.95h.69v4.86l5.88-4.86h20.45a5.06,5.06,0,0,0,5.17-4.95V712.59A5.06,5.06,0,0,0,1287.27,707.63Z"/><path class="cls-4" d="M1262.83,717v10.45a.41.41,0,0,0,.42.4h22.87a.42.42,0,0,0,.43-.41l-.06-3.82a.41.41,0,0,0-.08-.24l-3.28-4.2a.41.41,0,0,0-.34-.17l-3.78,0a.43.43,0,0,1-.42-.41V717a.41.41,0,0,0-.42-.41h-14.92A.41.41,0,0,0,1262.83,717Z"/><path class="cls-12" d="M1279.66,719.88v3.35a.23.23,0,0,0,.24.23l5-.08a.24.24,0,0,0,.2-.37l-2.36-3.33a.26.26,0,0,0-.21-.11l-2.69.07A.24.24,0,0,0,1279.66,719.88Z"/><rect class="cls-4" x="1262.37" y="728.15" width="24.63" height="0.73"/><path class="cls-12" d="M1270.52,728.43a2.44,2.44,0,1,1-2.44-2.33A2.39,2.39,0,0,1,1270.52,728.43Z"/><path class="cls-4" d="M1269.51,728.43a1.43,1.43,0,1,1-1.43-1.37A1.4,1.4,0,0,1,1269.51,728.43Z"/><path class="cls-10" d="M1278.57,727.83c-.06,0-.11-2.52-.11-5.63s0-5.63.11-5.63.11,2.52.11,5.63S1278.63,727.83,1278.57,727.83Z"/><path class="cls-12" d="M1283.79,728.43a2.44,2.44,0,1,1-2.43-2.33A2.38,2.38,0,0,1,1283.79,728.43Z"/><path class="cls-4" d="M1282.79,728.43a1.44,1.44,0,1,1-1.43-1.37A1.4,1.4,0,0,1,1282.79,728.43Z"/><path class="cls-10" d="M1281.36,724.12c0,.06-.35.11-.78.11s-.78-.05-.78-.11.35-.1.78-.1S1281.36,724.06,1281.36,724.12Z"/><text class="cls-13" transform="matrix(1.03, 0, 0, 1, 1156.84, 718.38)">Distanta</text><text class="cls-14" transform="translate(1186.59 511.43) scale(1.03 1)">Destinatie</text><path class="cls-15" d="M1561.07,532.64s19,3.05,20.57,3.44,7.55,3.09,7.86,4.84a49,49,0,0,1,0,6.87s-1.09.84-1.77-.84a16.44,16.44,0,0,1-.58-5l-3.37-1.23,1.84,3.1.31,7.26s-2.36-.21-2.82-1.94a16.64,16.64,0,0,1-.44-3.68l-2.46-2,1.84,2.36.62,5.23s-1.8.55-2.36-.61-.61-4.62-.61-4.62l-6.94-2.29-4.59,2.42-8.58-4.6Z"/><path class="cls-16" d="M1492.54,487.24c.09.35,24.86,31,24.86,31l45.88,13.52-2.09,16.33L1505,537.35l-20-21.7Z"/><g class="cls-17"><path class="cls-16" d="M1492.47,487.13c.09.35,24.93,31.1,24.93,31.1l45.88,13.52-2.09,16.33L1505,537.35l-20-21.7Z"/></g><path class="cls-2" d="M1414.55,546.4H1320.8a3.5,3.5,0,0,1-3.59-3.41V532.5a3.5,3.5,0,0,1,3.59-3.41h93.75a3.5,3.5,0,0,1,3.6,3.41V543A3.5,3.5,0,0,1,1414.55,546.4Z"/><path d="M1414.55,546.4s.21,0,.59-.08a3.57,3.57,0,0,0,1.57-.68,3.3,3.3,0,0,0,1.32-2.25c0-1,0-2.31,0-3.69s0-2.94,0-4.64c0-.84,0-1.72,0-2.64a3.2,3.2,0,0,0-1.21-2.39,3.39,3.39,0,0,0-1.33-.66,6.28,6.28,0,0,0-1.59-.11h-3.44l-7.5,0-82.1.08a3.39,3.39,0,0,0-2.44,1,3.11,3.11,0,0,0-.85,2.4c0,1.88,0,3.74,0,5.59v4.14a4.39,4.39,0,0,0,.12,1.28,3.15,3.15,0,0,0,1.58,1.91,3.52,3.52,0,0,0,1.23.38c.42,0,.93,0,1.39,0h21.8l36.91.07,24.89.09,6.76.05,1.76,0,.6,0-.6,0-1.76,0-6.76,0-24.89.1-36.91.06-21.8,0c-.48,0-.92,0-1.45,0a4,4,0,0,1-1.47-.44A3.74,3.74,0,0,1,1317,544a5.07,5.07,0,0,1-.14-1.43V532.8a3.67,3.67,0,0,1,1-2.79,4,4,0,0,1,2.89-1.21l82.1.08,7.5,0,3.44,0a6.36,6.36,0,0,1,1.68.13,3.83,3.83,0,0,1,1.47.73,3.5,3.5,0,0,1,1.3,2.63c0,.92,0,1.81,0,2.65,0,1.7,0,3.24,0,4.64s0,2.62-.06,3.71a3.46,3.46,0,0,1-1.43,2.33,3.68,3.68,0,0,1-1.63.64A2.48,2.48,0,0,1,1414.55,546.4Z"/><ellipse cx="1666.78" cy="721.96" rx="48.23" ry="45.69"/><path d="M1618.56,721.19a.45.45,0,0,1,0,.11c-.38,25.24,20.9,46,47.53,46.35s48.53-19.8,48.92-45c0,0,0-.08,0-.12Z"/><path class="cls-4" d="M1632.92,721.5c-.27,17.72,14.67,32.28,33.37,32.54s34.07-13.9,34.34-31.62-14.67-32.28-33.37-32.54S1633.19,703.78,1632.92,721.5Z"/><path class="cls-5" d="M1667.26,689.88c-18.69-.25-34.07,13.9-34.34,31.62l67.71.92C1700.9,704.71,1686,690.14,1667.26,689.88Z"/><path d="M1646.15,721.68c-.16,10.79,8.94,19.67,20.33,19.82s20.75-8.46,20.92-19.26-8.94-19.66-20.33-19.82S1646.32,710.89,1646.15,721.68Z"/><path class="cls-16" d="M1643.88,655s49.38-14.15,69.8,36.68L1610.36,722Z"/><ellipse cx="1369.21" cy="721.96" rx="48.23" ry="45.69"/><path d="M1321,721.19s0,.07,0,.11c-.38,25.24,20.9,46,47.53,46.35s48.53-19.8,48.92-45c0,0,0-.08,0-.12Z"/><path class="cls-4" d="M1335.36,721.5c-.27,17.72,14.67,32.28,33.37,32.54s34.07-13.9,34.34-31.62-14.67-32.28-33.37-32.54S1335.63,703.78,1335.36,721.5Z"/><path class="cls-5" d="M1369.7,689.88c-18.7-.25-34.07,13.9-34.34,31.62l67.71.92C1403.34,704.71,1388.4,690.14,1369.7,689.88Z"/><path d="M1348.59,721.68c-.16,10.79,8.94,19.67,20.33,19.82s20.75-8.46,20.92-19.26-8.94-19.66-20.33-19.82S1348.76,710.89,1348.59,721.68Z"/><path d="M1437.81,703.62c-.27.13-25.38-3.68-25.38-3.68h0a15.61,15.61,0,0,1-11.46,5.68c-10.84.49-21.45,1-30.63,1.33-8.57.37-15.21,7.23-14.85,15.35h0c.35,7.68,6.85,13.82,15,14.12l53.4,2c8.78.33,20.46-4.73,25.94-11.23h0Z"/><path class="cls-16" d="M1306.61,683.4s-2.3-44.53,41.87-53.81v-5.71h154.73v13.61s-22.71,25.91-15.3,47.43,9.74,23.72,9.74,23.72h88.06A55.37,55.37,0,0,0,1596.83,677c.47-18.89-7.81-51.18-14-71.82-5.62-18.77-9.17-34.46-9.17-34.46l26.42-8.34S1649,623,1651,626.36s8.79,11.36,7.19,28.76-45.53,71.14-57.11,77.19-22,6.44-32.35,8c-9,1.31-75.68.44-93.12.19a35.57,35.57,0,0,1-17.22-4.53c-5.21-3-9.13-7.95-13.46-16.09l-9.19-17Z"/><path d="M1318.45,680.3,1299,709.22c-2.5,3.7,1.54,8.36,5.79,6.62a22.66,22.66,0,0,0,6.54-4.2c8.91-8,24.8-29.2,24.8-29.2Z"/><path d="M1458.2,685.51a2.31,2.31,0,0,1,.11-.42l.4-1.22a30.48,30.48,0,0,0,1-4.77,32.17,32.17,0,0,0-3-17.46,36.54,36.54,0,0,0-7.18-10.23,47.27,47.27,0,0,0-11.84-8.56,62.23,62.23,0,0,0-15.46-5.45,85.3,85.3,0,0,0-17.65-1.73,141.55,141.55,0,0,0-17.75,1.24c-5.71.73-11.19,1.62-16.35,2.74a99.82,99.82,0,0,0-26.24,9.2,65.29,65.29,0,0,0-15,10.84c-1.56,1.53-2.67,2.79-3.42,3.65l-.84,1a1.87,1.87,0,0,1-.3.32,38,38,0,0,1,4.39-5.12,63.19,63.19,0,0,1,15-11,98.78,98.78,0,0,1,26.34-9.36c5.17-1.14,10.67-2,16.39-2.79a140.67,140.67,0,0,1,17.83-1.25,85.41,85.41,0,0,1,17.79,1.76,62.37,62.37,0,0,1,15.59,5.53,47.21,47.21,0,0,1,11.94,8.7,36.58,36.58,0,0,1,7.21,10.4,31.82,31.82,0,0,1,2.85,17.65,27.33,27.33,0,0,1-1.13,4.78c-.2.5-.34.9-.46,1.2A2.11,2.11,0,0,1,1458.2,685.51Z"/><path d="M1449.29,675.51c-.07,0,.25-.7.58-2a13.83,13.83,0,0,0,.18-5.54,22.19,22.19,0,0,0-2.88-7.76,28.1,28.1,0,0,0-2.85-4.07,25.75,25.75,0,0,0-3.83-3.76,34.42,34.42,0,0,0-9.21-5.1,44.91,44.91,0,0,0-8.44-2.19,59,59,0,0,0-5.89-.63,16.61,16.61,0,0,1-2.17-.16,1.88,1.88,0,0,1,.56-.05c.37,0,.92,0,1.62,0a47.56,47.56,0,0,1,6,.46,42.27,42.27,0,0,1,8.58,2.09,34.06,34.06,0,0,1,9.39,5.15,26,26,0,0,1,3.91,3.86,27.52,27.52,0,0,1,2.88,4.16,21.87,21.87,0,0,1,2.81,8,13.14,13.14,0,0,1-.38,5.64,7.87,7.87,0,0,1-.56,1.45A2,2,0,0,1,1449.29,675.51Z"/><g class="cls-18"><path d="M1419,636.5a63.86,63.86,0,0,1,23.3,9,39.44,39.44,0,0,1,15.61,18.37c3.09,7.53,2.63,17.51-.62,23.75l10.93.86c3.68-11.63-.33-25.91-9.17-35a55.67,55.67,0,0,0-40-17"/></g><rect class="cls-12" x="1309.74" y="545.53" width="115.88" height="78.35" rx="8.58"/><path d="M1425.62,563c0,.16-26,.29-58.19.29s-58.19-.13-58.19-.29,26-.29,58.19-.29S1425.62,562.85,1425.62,563Z"/><path d="M1503.13,629.07c0,.16-34.77.29-77.66.29s-77.68-.13-77.68-.29,34.77-.3,77.68-.3S1503.13,628.9,1503.13,629.07Z"/><path d="M1503.21,623.88a12.44,12.44,0,0,0,2.8-6.57c.24-3.68-1.53-8.29-5.71-8.29h-53.43c-8.66,0-15.68,6.65-15.68,14.86h72Z"/><path class="cls-16" d="M1573.66,570.74l-9.29-18.36a10.93,10.93,0,0,1,4.69-14.36l27.79-15.7a9.67,9.67,0,0,1,4.8-1.26h6l2.4,37.11-9.26,3.36,5.86,9Z"/><path class="cls-3" d="M1607.75,522.41s9.5,2.06,10.7,16-8.39,18.21-8.39,18.21Z"/><path d="M1576.9,545.19s-19.22,8.63-21.57,10c-1.62,1-3,2.7-1.74,5.73,2.17,5.16,11.16.31,11.16.31l17.88-8.48s6.88-3.07,4.34-6.92C1584.13,541.56,1576.9,545.19,1576.9,545.19Z"/><path class="cls-15" d="M1549.7,542s18,2.93,19.58,3.32,7.56,3.1,7.87,4.84a49,49,0,0,1,0,6.87s-1.09.84-1.77-.84a16.44,16.44,0,0,1-.58-5l-3.37-1.23,1.84,3.1.3,7.26s-2.35-.2-2.81-1.94a16.92,16.92,0,0,1-.45-3.67l-2.46-2,1.84,2.36.62,5.23s-1.79.55-2.36-.61-.61-4.62-.61-4.62l-6.93-2.29-4.59,2.42-7.22-3.75Z"/><path d="M1577.82,518.22c0,6.92-3.36,12.53-7.51,12.53s-7.5-5.61-7.5-12.53,3.36-12.54,7.5-12.54S1577.82,511.29,1577.82,518.22Z"/><path d="M1571.55,526.84l4.12,13.53a3.44,3.44,0,0,0,1.92-4c-1-4.64-1.62-7.94-2.76-12-.14-.41-3.28,2.46-3.28,2.46"/><g class="cls-18"><path d="M1490,690.7c-.41-1.11-.82-2.25-1.22-3.42s-.8-2.23-1.11-3.31a33.65,33.65,0,0,1-1-5.11c-7,26.84,3.66,45.74,21.9,47.07,26.65,1.94,59.14,3.36,72.29.09,24-6,32.74-24.88,34.84-28s21.15-36.12,9.47-67.9-32-65.51-32-65.51l-19.4,6.13s3.55,15.69,9.17,34.46c6.19,20.64,14.47,52.93,14,71.82a55.37,55.37,0,0,1-11.12,31.62h-88.06s-1.89-1.8-7.7-17.94"/></g><path class="cls-10" d="M1303.08,676.41l.62-6.36,160.74,17.54c9.07,1,15.38,9,13.79,17.56l-.72,3.87-166.36-22.91A9.09,9.09,0,0,1,1303.08,676.41Z"/><g class="cls-11"><path d="M1303.08,676.41l.62-6.36,160.74,17.54c9.07,1,15.38,9,13.79,17.56l-.72,3.87-166.36-22.91A9.09,9.09,0,0,1,1303.08,676.41Z"/></g><g class="cls-19"><path d="M1615.62,719s35.38-36.88,42.68-65.87a72.68,72.68,0,0,1,11,.77S1648.33,707.81,1615.62,719Z"/></g><path d="M1657.78,640.16a5.1,5.1,0,0,1,.2.93c.09.61.28,1.52.4,2.7a39.19,39.19,0,0,1-.28,10,49.17,49.17,0,0,1-4.66,14.18,159.43,159.43,0,0,1-9.37,15.86,213.13,213.13,0,0,1-20.71,26.54c-2.89,3.22-5.26,5.79-6.91,7.56l-1.92,2a5.49,5.49,0,0,1-.7.68,5.13,5.13,0,0,1,.61-.76l1.82-2.1c1.64-1.85,3.94-4.46,6.76-7.67a229.85,229.85,0,0,0,20.52-26.58,164.87,164.87,0,0,0,9.38-15.79,49.66,49.66,0,0,0,4.75-14,41.37,41.37,0,0,0,.47-9.93c-.08-1.17-.23-2.08-.29-2.69A6.71,6.71,0,0,1,1657.78,640.16Z"/><path d="M1596.62,718.75c-.12.12-2.66-2.06-5.67-4.85a46.74,46.74,0,0,1-5.24-5.26c.12-.12,2.66,2.05,5.67,4.85A47.81,47.81,0,0,1,1596.62,718.75Z"/><path d="M1491.6,717.61a15.64,15.64,0,0,1,2.6-4.77,16,16,0,0,1,3.72-4.05c.13.12-1.48,2-3.21,4.38S1491.76,717.69,1491.6,717.61Z"/><path class="cls-9" d="M1423.62,738.91a23.52,23.52,0,0,0,4.82-5.81,19.48,19.48,0,0,0,2.37-7.65,17.87,17.87,0,0,0-1.72-9.54,19,19,0,0,0-6.75-7.27,21.8,21.8,0,0,0-7.76-3.08,25.21,25.21,0,0,0-7.8-.1,1.75,1.75,0,0,1,.52-.15,14.22,14.22,0,0,1,1.55-.28,19.61,19.61,0,0,1,5.81.13,21.63,21.63,0,0,1,8,3,19.4,19.4,0,0,1,7,7.46,18.16,18.16,0,0,1,1.72,9.85,19.24,19.24,0,0,1-2.54,7.79,17.6,17.6,0,0,1-3.55,4.36,10.87,10.87,0,0,1-1.21,1A2.67,2.67,0,0,1,1423.62,738.91Z"/><path class="cls-9" d="M1364.92,727.23c-.17,0-.43-2.4-.58-5.37s-.13-5.39,0-5.4.43,2.4.58,5.37S1365.09,727.22,1364.92,727.23Z"/><path class="cls-9" d="M1369.18,727.24a25.06,25.06,0,0,1-1-5.36c-.4-3-.59-5.41-.42-5.43s.63,2.38,1,5.36S1369.35,727.22,1369.18,727.24Z"/><path d="M1435.47,623.88c0,.16-19.54.29-43.64.29s-43.65-.13-43.65-.29,19.54-.29,43.65-.29S1435.47,623.72,1435.47,623.88Z"/><path d="M1372.19,623.82c-.17,0-.31-21.21-.31-47.36s.14-47.37.31-47.37.3,21.2.3,47.37S1372.36,623.82,1372.19,623.82Z"/><path d="M1360.22,623.75c-.17,0,.67-21.21,1.87-47.34s2.31-47.33,2.48-47.32-.66,21.2-1.87,47.34S1360.39,623.75,1360.22,623.75Z"/><path class="cls-20" d="M1333.15,753a3,3,0,0,1-.52-.49c-.31-.34-.81-.82-1.37-1.51a43.18,43.18,0,0,1-4.36-6.05,44.25,44.25,0,0,1,.21-46.35,42.45,42.45,0,0,1,4.4-6c.57-.68,1.07-1.15,1.39-1.49a3.65,3.65,0,0,1,.52-.49,2.83,2.83,0,0,1-.42.56c-.29.37-.77.87-1.3,1.56a48.24,48.24,0,0,0-4.21,6.09,45,45,0,0,0-.21,46,50.75,50.75,0,0,0,4.16,6.12c.53.7,1,1.2,1.29,1.56A3,3,0,0,1,1333.15,753Z"/><path d="M1501,668.56l-.37.65-7.1,12.67-10,9.08,19.89,25.09,16.58-2.6s-1.86-3.59-10.18-4.28l-3.18-15L1518.36,677"/><polygon class="cls-5" points="1483.56 690.96 1503.45 716.05 1520.03 713.45 1517.75 711.38 1504.14 712.8 1485.67 689.03 1483.56 690.96"/><path class="cls-5" d="M1508.53,702.28c-.09.18-1.14-.19-2.42.05s-2.12.89-2.28.75.59-1.18,2.15-1.44S1508.66,702.13,1508.53,702.28Z"/><path class="cls-5" d="M1507.61,698.58c-.15.13-1-.68-2.42-.71s-2.32.7-2.45.56.07-.36.5-.67a3.27,3.27,0,0,1,3.91.12C1507.56,698.22,1507.68,698.52,1507.61,698.58Z"/><path class="cls-5" d="M1506.87,693.76c-.17.11-.89-.71-2.11-.9s-2.2.32-2.31.16.11-.33.54-.56a3,3,0,0,1,1.9-.29,2.94,2.94,0,0,1,1.67.88C1506.88,693.41,1507,693.71,1506.87,693.76Z"/><path class="cls-7" d="M1510.65,689.33c-.18.1-.8-.72-1.94-1.19s-2.19-.4-2.24-.6,1.15-.64,2.54,0S1510.85,689.28,1510.65,689.33Z"/><path class="cls-7" d="M1512.25,685.77c-.08.06-.73-.48-1.74-1.42l-1.73-1.67a5.34,5.34,0,0,1-1-1.15,1.24,1.24,0,0,1-.07-1,1,1,0,0,1,.92-.65,3.31,3.31,0,0,1,1.68.52,6,6,0,0,1,1.2.93,5.22,5.22,0,0,1,1.26,2.13,2.83,2.83,0,0,1,0,2.2,20.89,20.89,0,0,0-.5-2,5.41,5.41,0,0,0-1.27-1.84A4.79,4.79,0,0,0,1510,681a2.71,2.71,0,0,0-1.25-.41.31.31,0,0,0-.29.19.65.65,0,0,0,0,.45,5.52,5.52,0,0,0,.83,1l1.62,1.77C1511.8,685,1512.32,685.7,1512.25,685.77Z"/><path class="cls-7" d="M1512.92,686.14c-.07,0-.16-.83.58-1.92a4.3,4.3,0,0,1,4.76-1.61.73.73,0,0,1,.36.52.86.86,0,0,1-.11.53,2.58,2.58,0,0,1-.51.59,7.94,7.94,0,0,1-1.06.82,7.55,7.55,0,0,1-2.08.92,3.6,3.6,0,0,1-2.08.14c0-.11.77-.18,1.91-.61a8.62,8.62,0,0,0,1.86-1,7.33,7.33,0,0,0,.94-.78,1.84,1.84,0,0,0,.36-.42c.06-.15,0-.1,0-.14a1.49,1.49,0,0,0-.51-.1,4.42,4.42,0,0,0-.63,0,4.28,4.28,0,0,0-1.16.27,4.06,4.06,0,0,0-1.64,1.14C1513.16,685.4,1513,686.17,1512.92,686.14Z"/><path class="cls-5" d="M1496.7,688.4a1.9,1.9,0,0,1-1.64,2.17,2,2,0,0,1-2.3-1.55,1.9,1.9,0,0,1,1.64-2.17A2,2,0,0,1,1496.7,688.4Z"/><path d="M1561.37,680.63l5.32,32.72,43-6.06c-.86-3.85-24.34-8.53-24.34-8.53l-2.5-21.1Z"/><path class="cls-5" d="M1571.78,698.87a1.65,1.65,0,0,0-.92,2.07,1.69,1.69,0,0,0,3.12-1.32,1.83,1.83,0,0,0-2.35-.68"/><path class="cls-5" d="M1566.69,713.35l-.4-3.31,41.38-4.58s2,.52,2,1.83Z"/><path class="cls-5" d="M1586,698.45c0,.2-1,.44-2,1.22s-1.35,1.7-1.55,1.65-.08-1.24,1.07-2.17S1586,698.26,1586,698.45Z"/><path class="cls-5" d="M1590.81,699.58c.08.19-.78.66-1.36,1.6s-.65,1.86-.86,1.88-.52-1.09.23-2.24S1590.77,699.39,1590.81,699.58Z"/><path class="cls-5" d="M1594.17,704.34c-.18.07-.63-.89-.26-2.05s1.28-1.74,1.4-1.59-.41.82-.69,1.79S1594.38,704.29,1594.17,704.34Z"/><path class="cls-7" d="M1584.89,693.7c-.06.2-1.07.06-2.25.3s-2,.73-2.18.57.65-1,2-1.25S1585,693.53,1584.89,693.7Z"/><path class="cls-7" d="M1583.1,689a4.26,4.26,0,0,1-2.15.29,10.41,10.41,0,0,1-2.36-.33,13,13,0,0,1-1.33-.45,2.62,2.62,0,0,1-.73-.39.84.84,0,0,1-.26-1,1.15,1.15,0,0,1,.85-.59,3.24,3.24,0,0,1,.82,0,8.62,8.62,0,0,1,1.41.25,8.06,8.06,0,0,1,2.18,1c1.13.74,1.59,1.43,1.53,1.48s-.67-.47-1.8-1a9.09,9.09,0,0,0-2.08-.76,8.67,8.67,0,0,0-1.3-.18c-.47,0-.86,0-.94.21s0,.11.08.22a2.34,2.34,0,0,0,.53.28c.42.18.83.33,1.24.46a11.72,11.72,0,0,0,2.2.46A15,15,0,0,1,1583.1,689Z"/><path class="cls-7" d="M1582.87,689.34c-.07,0-.59-.62-.87-1.9a6.25,6.25,0,0,1-.06-2.27,6.8,6.8,0,0,1,.35-1.32,1.75,1.75,0,0,1,1.22-1.22,1,1,0,0,1,1,.44,2.44,2.44,0,0,1,.34.72,4.17,4.17,0,0,1,.22,1.37,4.55,4.55,0,0,1-.59,2.24c-.67,1.17-1.51,1.54-1.54,1.47s.59-.58,1.07-1.68a4.5,4.5,0,0,0,.38-2,4.11,4.11,0,0,0-.23-1.17c-.13-.42-.36-.75-.52-.68s-.53.4-.65.77a7,7,0,0,0-.36,1.19,7.25,7.25,0,0,0-.1,2.09C1582.64,688.58,1583,689.29,1582.87,689.34Z"/><polyline points="1527.53 603.76 1490.64 679.91 1515 693.77 1566 602.14"/><path d="M1588.35,695.51l-26.47,4L1546,610l-78.25,5.38a20,20,0,0,1-6.17-.57c-22-5.7-19-32.25-16.89-36.51L1553,575.32c11.75-.32,21.87,7.78,23.5,18.81Z"/><path class="cls-16" d="M1443.66,582.48l.39-37.86s-5.15-24.62-6.68-34.3c-2.37-15-5.61-22.16,20.36-32.84l5.68-2.07,8.78.11c10.49.74,21.53,9.72,21.78,15.67l10.11,85.32Z"/><path class="cls-16" d="M1447,486.29s-7.33,14.95-5.86,28.57l27.32,24.85c6.13,6.46,13.79,9.21,23.59,9.77l56.55,5.86,1.57-14-53.79-14.44c-2.14-.38-3.21-2.5-4.85-3.85L1447,486.29"/><path d="M1440.87,490.59a4,4,0,0,1,1.08-.69,13.81,13.81,0,0,1,3.66-1,19.78,19.78,0,0,1,6.11,0,6.45,6.45,0,0,1,1.79.58,16.78,16.78,0,0,1,1.66,1.08,37.74,37.74,0,0,1,3.31,2.74c2.27,2,4.41,4.53,6.92,7.1s5.27,5.33,8.25,8.23,6.21,5.92,9.66,9.05c1.74,1.56,3.52,3.14,5.41,4.7,1,.74,1.9,1.61,2.81,2.43a6.88,6.88,0,0,0,3.18,1.76h0L1548.53,541l.25.07,0,.24c-.12,1-.24,2.06-.36,3.14-.41,3.73-.83,7.41-1.22,10.88l0,.29-.3,0-23.94-2.48L1511.59,552l-10.84-1c-3.52-.37-6.94-.75-10.26-1.21a48.53,48.53,0,0,1-9.5-2.09,35.88,35.88,0,0,1-8-4.08c-2.39-1.57-4.57-3.22-6.61-4.83-8.08-6.54-14-12.37-18.13-16.35-2-2-3.6-3.58-4.65-4.66l-1.19-1.23c-.26-.28-.38-.43-.38-.43l.43.4,1.22,1.19,4.74,4.57c4.16,3.94,10.14,9.73,18.23,16.21,2,1.59,4.22,3.23,6.6,4.78a35.61,35.61,0,0,0,7.92,4,47.74,47.74,0,0,0,9.4,2c3.31.45,6.73.82,10.25,1.18l10.84,1,11.32,1.17,23.94,2.47-.33.26c.38-3.47.8-7.16,1.21-10.88.12-1.08.24-2.15.36-3.14l2,.64c-19.45-5.24-39.61-10.5-55.6-14.81h0a7.36,7.36,0,0,1-3.44-1.9c-1-.85-1.82-1.66-2.79-2.43-1.9-1.57-3.68-3.16-5.41-4.72-3.45-3.15-6.66-6.2-9.64-9.1s-5.72-5.67-8.22-8.28-4.62-5.13-6.85-7.13a40.53,40.53,0,0,0-3.26-2.74,16.88,16.88,0,0,0-1.62-1.08,6.37,6.37,0,0,0-1.71-.57,19.92,19.92,0,0,0-6-.09,14,14,0,0,0-3.64.89A10.6,10.6,0,0,0,1440.87,490.59Z"/><path class="cls-15" d="M1455,442.57l2.75,36.85a11.88,11.88,0,0,0,12.1,10.69h0c7,0,12.56-5.62,12.1-12.25-.24-3.5-.46-6.38-.46-6.38s9.41-1.38,9.53-10.31c.07-5.15-.87-16.84-1.67-25.8a12.11,12.11,0,0,0-12.31-10.7h-5.69C1461.53,425.21,1454.14,433.3,1455,442.57Z"/><path class="cls-21" d="M1481.48,471.35a22.85,22.85,0,0,1-12.27-3.3s2.9,6.42,12.29,5.62Z"/><path class="cls-7" d="M1487.21,446.83a1.31,1.31,0,0,1-1.3,1.29,1.27,1.27,0,0,1-1.39-1.15,1.31,1.31,0,0,1,1.3-1.28A1.26,1.26,0,0,1,1487.21,446.83Z"/><path class="cls-7" d="M1487.7,444.32c-.16.16-1.18-.55-2.63-.55s-2.51.69-2.66.52.09-.37.55-.69a3.77,3.77,0,0,1,2.13-.62,3.68,3.68,0,0,1,2.1.64C1487.63,443.94,1487.78,444.24,1487.7,444.32Z"/><path class="cls-7" d="M1473.62,446.84a1.3,1.3,0,0,1-1.3,1.28,1.26,1.26,0,0,1-1.38-1.15,1.29,1.29,0,0,1,1.29-1.28A1.26,1.26,0,0,1,1473.62,446.84Z"/><path class="cls-7" d="M1473.48,444.57c-.17.17-1.19-.54-2.63-.54s-2.51.69-2.67.52.09-.37.56-.69a3.82,3.82,0,0,1,2.13-.63,3.76,3.76,0,0,1,2.1.64C1473.41,444.2,1473.56,444.5,1473.48,444.57Z"/><path class="cls-7" d="M1478.73,454.74a10.11,10.11,0,0,1,2.35-.4c.37,0,.72-.11.78-.35a1.71,1.71,0,0,0-.24-1l-1.1-2.67c-1.51-3.79-2.61-6.92-2.45-7s1.52,3,3,6.77c.36.93.71,1.82,1.05,2.68a1.92,1.92,0,0,1,.19,1.37.91.91,0,0,1-.61.51,2.58,2.58,0,0,1-.63.09A10,10,0,0,1,1478.73,454.74Z"/><path class="cls-7" d="M1474.47,455.69c.24,0,.24,1.47,1.58,2.53s3,.89,3,1.1-.37.29-1.08.31a4,4,0,0,1-2.52-.84,3.15,3.15,0,0,1-1.23-2.12C1474.19,456.05,1474.36,455.68,1474.47,455.69Z"/><path class="cls-7" d="M1473.85,439.2c-.14.37-1.58.2-3.28.39s-3.07.63-3.3.3c-.1-.16.14-.51.69-.87a5.64,5.64,0,0,1,2.45-.81,5.71,5.71,0,0,1,2.57.28C1473.6,438.73,1473.91,439,1473.85,439.2Z"/><path class="cls-7" d="M1487.17,440.35c-.25.31-1.25,0-2.45,0s-2.21.21-2.45-.11c-.1-.16.06-.47.5-.77a3.61,3.61,0,0,1,2-.51,3.55,3.55,0,0,1,2,.63C1487.14,439.88,1487.28,440.2,1487.17,440.35Z"/><path class="cls-15" d="M1458.16,449.26c-.16-.06-6.47-1.81-6.27,4.29s6.63,4.65,6.64,4.47S1458.16,449.26,1458.16,449.26Z"/><path class="cls-21" d="M1456.48,455.77s-.11.08-.3.16a1.17,1.17,0,0,1-.83.05,2.63,2.63,0,0,1-1.37-2.32,3.29,3.29,0,0,1,.27-1.53,1.25,1.25,0,0,1,.81-.85.58.58,0,0,1,.67.28c.1.16.06.29.09.3s.14-.11.08-.36a.69.69,0,0,0-.27-.38.91.91,0,0,0-.62-.13,1.54,1.54,0,0,0-1.14,1,3.43,3.43,0,0,0-.33,1.71,2.76,2.76,0,0,0,1.72,2.59,1.28,1.28,0,0,0,1-.2C1456.47,455.92,1456.5,455.78,1456.48,455.77Z"/><path class="cls-7" d="M1454.58,449.06a3.43,3.43,0,0,1,3.1,1.5c.41.87.51,1.86.92,2.73a2.29,2.29,0,0,0,2.35,1.44,1.91,1.91,0,0,0,1.34-1.39,4.84,4.84,0,0,0,0-2c-.38-2.85-1-5.67-1.13-8.54a13.93,13.93,0,0,1,1.9-8.29,8.56,8.56,0,0,1,7.53-4c2,.15,3.83,1.14,5.82,1.4a8.1,8.1,0,0,0,6.53-2.07c.22-.2,1.22-.83,1.22-.83a3.33,3.33,0,0,0-.67-1.88c-4-3.46-11-4.42-16.26-3.18s-10.09,4.73-12.33,9.35-1.58,11.06-.34,15.74"/><path class="cls-10" d="M1489.43,434s-24.7-7.53-35.39,12.72c0,0-1.59-5.06-1.59-7.78a17.41,17.41,0,0,1,12.87-16S1483,416.52,1489.43,434Z"/><path class="cls-7" d="M1468.21,434.5a5.48,5.48,0,0,0,4.08,2.39,5.64,5.64,0,0,0,4.47-1.65,3.23,3.23,0,0,0,6-.3,7,7,0,0,0,2.4,1.66,2.54,2.54,0,0,0,2.74-.54,2.18,2.18,0,0,0-.17-2.69,5.87,5.87,0,0,0-2.5-1.59,18.94,18.94,0,0,0-9.32-1.34,12.76,12.76,0,0,0-8.17,4.21"/><g class="cls-18"><path d="M1489.43,434a11.74,11.74,0,0,0-7.86-3.38c-7.28-.3-20.92,3.58-27.53,16.1,0,0-1.59-5.06-1.59-7.78a17.41,17.41,0,0,1,12.87-16S1483,416.52,1489.43,434Z"/></g><path class="cls-10" d="M1455.07,444.34a45.6,45.6,0,0,1,14.4-13.06c5.67-3.36,15.06-6.68,21.53-8.31a14.7,14.7,0,0,1,6-.59c2,.32,3.92,1.57,4.41,3.42.62,2.31-3.71,5.88-5.75,7.28a67.87,67.87,0,0,1-6.18,3.46s0-4.29-7.19-5.17C1472.39,430.17,1455.07,444.34,1455.07,444.34Z"/><g class="cls-19"><path d="M1446.38,520.39c2.55,5.82,5.12,13,8.81,18.25s8.62,9.89,14.76,12.33c7.71,3,16.82,3.55,24.49.41.63-.25,1.85-.58,1.74-1.21,0,0-2.54-.27-3.32-.4-15.5-2.48-17.18-4.29-24.6-9.84-4.62-3.46-14.87-13.93-21.88-19.54"/></g><path d="M1495.63,562.79a6.1,6.1,0,0,1-.64,1.36,17.46,17.46,0,0,1-2.51,3.31,27.36,27.36,0,0,1-12,7,57.6,57.6,0,0,1-14,2c-1.8.06-3.26.08-4.27.07a7.48,7.48,0,0,1-1.57-.07,8.21,8.21,0,0,1,1.56-.15l4.26-.26a64.42,64.42,0,0,0,13.81-2.13,28.31,28.31,0,0,0,11.86-6.68A29.13,29.13,0,0,0,1495.63,562.79Z"/><path class="cls-22" d="M1562.36,702.2a1.21,1.21,0,0,1-.1-.34c0-.27-.12-.61-.21-1-.18-1-.44-2.27-.76-4-.64-3.48-1.55-8.46-2.68-14.59L1550,634.09c-1.5-8.5-2.93-16.65-4.24-24.07l.31.22-33.86,2.35-9.72.62-2.59.15-.67,0H1499l.22,0,.67-.07,2.58-.23,9.71-.78L1546,609.7l.26,0,0,.25c1.32,7.42,2.76,15.56,4.27,24.07,3.3,18.81,6.27,35.83,8.44,48.2,1,6.15,1.89,11.14,2.49,14.63.27,1.7.49,3,.64,4,.07.43.12.77.15,1A1.33,1.33,0,0,1,1562.36,702.2Z"/><path class="cls-22" d="M1554,602c.11.13-2,1.81-4.29,4.07s-4.08,4.23-4.22,4.13,1.4-2.26,3.78-4.54A19.32,19.32,0,0,1,1554,602Z"/><path d="M1482.84,477.93s.06.12.14.37a5.23,5.23,0,0,1,.22,1.1,8.61,8.61,0,0,1-.57,4.06,10.54,10.54,0,0,1-3.89,4.83,12.18,12.18,0,0,1-7.56,1.92,14,14,0,0,1-7.35-2.61,15.37,15.37,0,0,1-4.18-4.62,15.69,15.69,0,0,1-1.6-3.8,9.05,9.05,0,0,1-.23-1.09c0-.25,0-.38,0-.38a25.63,25.63,0,0,0,2.24,5.07,15.6,15.6,0,0,0,4.14,4.39,13.78,13.78,0,0,0,7,2.46,11.83,11.83,0,0,0,7.2-1.78,10.3,10.3,0,0,0,3.8-4.54,9,9,0,0,0,.74-3.9C1482.92,478.46,1482.77,478,1482.84,477.93Z"/><path d="M1499.47,526.73a4.43,4.43,0,0,1-.25-1.16c-.13-.88-.29-2-.48-3.2-.39-2.85-.89-6.51-1.44-10.56s-1-7.88-1.22-10.6c-.13-1.36-.22-2.46-.26-3.22a4.76,4.76,0,0,1,0-1.19,4.6,4.6,0,0,1,.25,1.17c.13.88.29,1.95.47,3.2.37,2.84.85,6.51,1.39,10.57s1,7.87,1.27,10.58c.13,1.36.23,2.46.28,3.22A3.88,3.88,0,0,1,1499.47,526.73Z"/><text class="cls-23" transform="matrix(0.88, 0, 0, 1, 1157.46, 732.93)">1<tspan class="cls-24" x="5.33" y="0">,</tspan><tspan x="9.02" y="0">8 </tspan><tspan class="cls-25" x="21.84" y="0">k</tspan><tspan x="30.76" y="0">m</tspan></text></g></svg>