<svg xmlns="http://www.w3.org/2000/svg" viewBox="0 0 1920 1080"><defs><style>.cls-1{fill:#34d399;}.cls-2{fill:#e0e0e0;}.cls-3{fill:#f5f5f5;}.cls-4{fill:#ebebeb;}.cls-5{fill:#ffbe9d;}.cls-6{fill:#eb996e;}.cls-7{fill:#e8505b;}.cls-8{fill:#af1414;}.cls-9{fill:#dc2626;}.cls-10{opacity:0.4;}.cls-11{opacity:0.2;}.cls-12{fill:#aa6550;}.cls-13{fill:#dba223;}.cls-14{fill:#af2266;}.cls-15{fill:#db2777;}.cls-16{fill:#fbbf24;}</style></defs><g id="Character"><path class="cls-1" d="M1629.35,1081.73c-36.77-15.32-53.63-56.61-61.1-95.63-1.25-6.52-3.46-13.16-1.82-19.56s7.59-12,13.69-10.62c5.07,1.12,8.31,6.2,11.9,10.18A36.51,36.51,0,0,0,1609.68,977c4.39,1.16,9.52,1.26,12.87-1.94,4.6-4.4,3.49-12.26,2-18.68l-8.31-35.88c-1.48-6.42-3-13-2.45-19.55s3.44-13.29,8.86-16.45,13.4-1.43,16,4.55c1.1,2.49,1.21,5.34,2,8s2.61,5.29,5.19,5.43,4.63-2.29,6-4.63c4.84-8.06,7.23-17.49,9.36-26.8s4.08-18.79,8.2-27.3,10.77-16.09,19.39-18.79,19.22.65,23.46,9.13,1.31,19-2.5,27.66a148.64,148.64,0,0,1-22,35.56c-1.6,1.91-3.34,4-3.54,6.55-.36,4.62,4.46,7.91,8.79,8.32,4.91.46,9.73-1.27,14.63-1.87s10.54.32,13.41,4.61c4,5.94.31,14.13-3.8,19.92a122.85,122.85,0,0,1-29.82,29.63c-4.1,2.85-8.48,5.55-11.35,9.77s-3.76,10.55-.55,14.53,9.15,4,13.64,1.94,8.1-5.83,12.19-8.73c7.63-5.43,18.6-7.53,25.7-1.24,4.66,4.14,6.54,11.05,6.1,17.48s-2.9,12.48-5.67,18.19c-9.7,20-23.9,37.64-41.76,49.61s-35.46,18.39-56.47,15.77"/><path class="cls-2" d="M1633.37,1055.09c1-20.89,3.92-43.69,7.74-67.43q1.47-8.89,2.89-17.56c1-5.77,1.92-11.48,3.18-17a309.3,309.3,0,0,1,9-31.33c3.31-9.82,6.8-19,10.11-27.59s6.59-16.49,9.84-23.57a238,238,0,0,1,17.71-32.21c2.37-3.62,4.29-6.36,5.62-8.2l1.52-2.09a.44.44,0,1,1,.1.08c-.36.53-.83,1.25-1.43,2.15-1.27,1.89-3.13,4.67-5.44,8.33A251.75,251.75,0,0,0,1676.84,871c-3.2,7.09-6.4,15-9.69,23.58s-6.72,17.78-10,27.58a312,312,0,0,0-8.87,31.23c-1.25,5.51-2.18,11.17-3.14,17s-1.91,11.63-2.89,17.55c-3.82,23.72-6.75,46.46-7.82,67.29"/><path class="cls-2" d="M1647.49,953a13.35,13.35,0,0,1-1.21-2.59c-.72-1.69-1.69-4.18-2.84-7.28-2.3-6.18-5.21-14.84-8.38-24.39s-6.18-18.14-8.57-24.27c-1.19-3.07-2.17-5.55-2.87-7.25a13.83,13.83,0,0,1-1-2.7A12.77,12.77,0,0,1,1624,887c.83,1.64,1.93,4.07,3.22,7.11,2.59,6.06,5.73,14.64,8.91,24.2s5.91,18,8.06,24.5c1,2.94,1.82,5.42,2.48,7.41A12.92,12.92,0,0,1,1647.49,953Z"/><path class="cls-2" d="M1722.49,917.92a17.09,17.09,0,0,1-3,1.18c-2,.69-4.83,1.67-8.32,3-7,2.61-16.56,6.57-26.92,11.44s-19.55,9.71-26.1,13.42c-3.29,1.82-5.91,3.38-7.73,4.44a16,16,0,0,1-2.89,1.55,18.47,18.47,0,0,1,2.66-2c1.75-1.19,4.32-2.87,7.57-4.8,6.47-3.91,15.63-8.88,26-13.78a277.74,277.74,0,0,1,27.12-11.14c3.54-1.23,6.44-2.09,8.46-2.64A16.79,16.79,0,0,1,1722.49,917.92Z"/><path class="cls-2" d="M1634,1053.33a4.88,4.88,0,0,1-.76-.87l-2-2.66c-1.74-2.31-4.17-5.73-7.13-10-5.92-8.52-13.74-20.56-22.21-34s-16.17-25.52-21.91-34.16c-2.81-4.19-5.11-7.64-6.83-10.21-.74-1.11-1.34-2-1.84-2.79a4,4,0,0,1-.58-1s.29.27.76.87l2,2.66c1.74,2.31,4.17,5.73,7.13,10,5.92,8.52,13.74,20.56,22.21,34s16.17,25.51,21.91,34.16l6.83,10.2,1.84,2.8A4,4,0,0,1,1634,1053.33Z"/><path class="cls-2" d="M1730.3,991.89a4.17,4.17,0,0,1-.93.71l-2.79,1.82-10.31,6.6c-8.7,5.58-20.64,13.42-33.82,22.11s-25.2,16.43-34,21.82c-4.41,2.69-8,4.83-10.5,6.26l-2.9,1.63a3.91,3.91,0,0,1-1,.49,4.44,4.44,0,0,1,.94-.71l2.78-1.82,10.31-6.6c8.71-5.58,20.64-13.42,33.83-22.11s25.19-16.43,34-21.82c4.4-2.69,8-4.83,10.5-6.26l2.89-1.63A3.91,3.91,0,0,1,1730.3,991.89Z"/><path class="cls-3" d="M1634.91,578.72c0-36.23-31.1-64.81-66.72-57.77-22.4,4.43-40.25,23.69-44.18,47.34a61.2,61.2,0,0,0,6.85,40.15h0l.16.23c2.14,3.8,4.82,6.52,7.54,10.51L1571,664.44a9.79,9.79,0,0,0,16.11,0l31.9-44.51s6-7.48,8.12-11.32l.12-.17h0A60.84,60.84,0,0,0,1634.91,578.72ZM1579,604.34c-13.59,0-24.6-11.6-24.6-25.9s11-25.89,24.6-25.89,24.59,11.59,24.59,25.89S1592.61,604.34,1579,604.34Z"/><path class="cls-4" d="M1677.64,679.7c0-19.54-16.77-35-36-31.15-12.08,2.39-21.71,12.78-23.82,25.53a33,33,0,0,0,3.69,21.65h0l.09.12c1.15,2,2.6,3.52,4.06,5.67l17.5,24.41a5.29,5.29,0,0,0,8.69,0l17.2-24a69.13,69.13,0,0,0,4.38-6.1l.06-.09h0A32.88,32.88,0,0,0,1677.64,679.7Zm-30.14,13.82c-7.32,0-13.26-6.26-13.26-14s5.94-14,13.26-14,13.26,6.25,13.26,14S1654.83,693.52,1647.5,693.52Z"/><path class="cls-5" d="M1545.21,571.42l-9.25,138c-1.51,22.53-19.3,40-40.75,40h0c-23.61,0-42.31-21-40.76-45.83.82-13.13,1.56-23.89,1.56-23.89s-31.72-5.19-32.11-38.58c-.23-19.29,2.93-63.06,5.64-96.59,1.83-22.67,19.85-40.07,41.46-40.07h19.16C1523.15,506.44,1548.05,536.75,1545.21,571.42Z"/><path class="cls-6" d="M1456,679.17s20,1.72,41.34-12.37c0,0-9.77,24-41.41,21Z"/><path d="M1439.41,584.82a4.66,4.66,0,0,0,4.36,4.81,4.42,4.42,0,0,0,4.67-4.3,4.66,4.66,0,0,0-4.36-4.81A4.4,4.4,0,0,0,1439.41,584.82Z"/><path d="M1435,578c.56.62,4-2.05,8.87-2s8.44,2.58,9,2c.26-.28-.31-1.4-1.87-2.59a12,12,0,0,0-7.18-2.33,11.53,11.53,0,0,0-7.06,2.39C1435.24,576.57,1434.73,577.69,1435,578Z"/><path d="M1487,584.82a4.66,4.66,0,0,0,4.37,4.81,4.41,4.41,0,0,0,4.66-4.3,4.66,4.66,0,0,0-4.36-4.81A4.41,4.41,0,0,0,1487,584.82Z"/><path d="M1482.91,578.93c.57.62,4-2,8.87-2s8.45,2.58,9,2c.25-.28-.31-1.4-1.87-2.59a12,12,0,0,0-7.19-2.34,11.62,11.62,0,0,0-7.06,2.4C1483.15,577.52,1482.64,578.65,1482.91,578.93Z"/><path d="M1465.23,617c0-.29-3-.84-7.92-1.5-1.24-.13-2.42-.39-2.63-1.29s.23-2.36.83-3.88q1.76-4.75,3.68-10c5.11-14.21,8.81-25.89,8.27-26.1s-5.13,11.13-10.25,25.34l-3.52,10c-.47,1.49-1.28,3.18-.65,5.15a3.17,3.17,0,0,0,2,1.91,8,8,0,0,0,2.11.31C1462.14,617.25,1465.21,617.28,1465.23,617Z"/><path d="M1479.57,620.53c-.79,0-.8,5.53-5.33,9.48s-10.16,3.34-10.2,4.12c-.07.35,1.25,1.08,3.63,1.15a12.81,12.81,0,0,0,8.52-3.12,12.31,12.31,0,0,0,4.13-7.95C1480.52,621.88,1479.93,620.5,1479.57,620.53Z"/><path d="M1481.66,558.82c.48,1.39,5.34.73,11.06,1.46s10.34,2.36,11.1,1.11c.34-.6-.46-1.91-2.33-3.26a17.89,17.89,0,0,0-8.23-3,17.49,17.49,0,0,0-8.65,1.07C1482.51,557.06,1481.45,558.15,1481.66,558.82Z"/><path d="M1436.8,563.12c.86,1.16,4.21,0,8.25-.1,4-.21,7.46.78,8.24-.44.35-.59-.19-1.76-1.68-2.86a11.46,11.46,0,0,0-13.29.43C1436.89,561.35,1436.42,562.55,1436.8,563.12Z"/><path class="cls-5" d="M1534.52,596.48c.54-.24,21.79-6.78,21.1,16s-22.32,17.39-22.34,16.73S1534.52,596.48,1534.52,596.48Z"/><path class="cls-6" d="M1540.17,620.83c.1-.07.37.3,1,.62a3.55,3.55,0,0,0,2.82.16c2.32-.81,4.36-4.57,4.59-8.68a13.72,13.72,0,0,0-.88-5.73c-.62-1.7-1.61-2.9-2.75-3.15a1.91,1.91,0,0,0-2.27,1c-.3.63-.18,1.09-.3,1.13s-.45-.4-.25-1.34a2.61,2.61,0,0,1,.9-1.4,2.72,2.72,0,0,1,2.11-.51c1.66.18,3.12,1.85,3.83,3.67a14.14,14.14,0,0,1,1.12,6.41c-.28,4.59-2.65,8.83-5.81,9.67a3.89,3.89,0,0,1-3.44-.72C1540.19,621.39,1540.09,620.87,1540.17,620.83Z"/><path d="M1546.58,595.71c-3.3-.84-9,2.37-10.43,5.63s-1.73,7-3.13,10.22-4.58,6.21-7.9,5.39c-2.28-.57-3.91-2.83-4.51-5.21a20.28,20.28,0,0,1-.07-7.37c1.28-10.66,3.41-21.23,3.82-32s-1-21.89-6.4-31-15.19-15.88-25.37-15c-6.74.58-12.92,4.28-19.61,5.26a25.69,25.69,0,0,1-22-7.73,49.88,49.88,0,0,0-4.11-3.11c0-.56.5-5.33,2.28-7.06,13.28-12.94,37.21-16.55,54.76-11.9s34,17.69,41.53,35,5.31,41.39,1.15,58.91"/><path class="cls-7" d="M1429.19,539.33s83.2-28.19,119.19,47.61c0,0,5.38-19,5.38-29.14,0-6.79-3.86-47.23-43.38-60C1510.38,497.84,1450.84,473.92,1429.19,539.33Z"/><path d="M1500.68,541.22a18.3,18.3,0,0,1-13.75,8.95,17.92,17.92,0,0,1-15.06-6.19,11,11,0,0,1-10.46,7,11.11,11.11,0,0,1-9.71-8.16c-2.42,2.47-4.93,5-8.09,6.23s-7.17.76-9.25-2-1.5-7.17.58-10,5.27-4.59,8.43-6c9.88-4.35,20.78-6.53,31.4-5s20.89,6.94,27.52,15.79"/><path class="cls-8" d="M1429.19,539.33a38.08,38.08,0,0,1,26.46-12.65c24.54-1.14,70.48,13.39,92.73,60.26,0,0,5.38-19,5.38-29.14,0-6.79-3.86-47.23-43.38-60C1510.38,497.84,1450.84,473.92,1429.19,539.33Z"/><path class="cls-9" d="M1544.91,578.06c-12.34-19.87-29.35-36.3-48.48-48.88s-50.75-25-72.54-31.12c-6.54-1.83-13.37-3.43-20-2.21s-13.2,5.89-14.85,12.8c-2.07,8.65,12.51,22,19.36,27.25s20.83,13,20.83,13-.19-16,24.21-19.35C1486.57,525,1544.91,578.06,1544.91,578.06Z"/><path class="cls-2" d="M1476.67,512.6s-12-7-24-8.61a31.17,31.17,0,0,1,6.53-4.13c6.16,1.29,12.4,2.94,18.73,6.63Z"/><path class="cls-9" d="M1409.15,708.37l26.39-6.12,10.73-2.82,9-14.6s4.26,26.09,20.23,40.14a17.85,17.85,0,0,0,15.72,4c3.62-.8,7.86-1.79,11-2.67.67-.19,1.41-.44,2.19-.73,11.62-4.4,21.11-13.37,27.17-24.69,3.55-6.63,6.55-13.44,5.53-16l12.52,27.31,73.8,35.79,41.9,107.74L1584.08,881l-2.52,88.77,15.29,112-229.75.17,8.15-249.11"/><path d="M1468.54,804.81a9,9,0,0,0,1.45,0l4.08-.1,14.61-.55h.29v-.3c.25-6.68.54-14.58.85-23,.39-12.17.73-23.19,1-31.29.09-3.93.16-7.14.21-9.48,0-1.06,0-1.91,0-2.58a4.72,4.72,0,0,0,0-.91,4.06,4.06,0,0,0-.11.9c0,.67-.09,1.52-.15,2.57-.11,2.34-.27,5.55-.45,9.48-.31,8.09-.73,19.11-1.2,31.28-.27,8.46-.53,16.36-.75,23l.3-.32-14.59.83-4.08.28A7.62,7.62,0,0,0,1468.54,804.81Z"/><path d="M1481.06,768.82s-.34-.28-1.09-.37a4.34,4.34,0,0,0-3,.88,4.85,4.85,0,0,0-1.47,1.77,4.73,4.73,0,0,0-.4,2.69,5,5,0,0,0,9.09,2.45,5.68,5.68,0,0,0,1-4.78,5.91,5.91,0,0,0-1.52-2.9c-.54-.54-.92-.72-.94-.69s.29.32.73.89a6.37,6.37,0,0,1,1.23,2.81,5.23,5.23,0,0,1-1,4.21,4.37,4.37,0,0,1-7.92-2.1,4.16,4.16,0,0,1,1.52-3.91,4.3,4.3,0,0,1,2.71-1C1480.66,768.75,1481,768.89,1481.06,768.82Z"/><path d="M1483.52,737.54a2.26,2.26,0,0,0-1.15-.55,4.76,4.76,0,0,0-3.43.53,5,5,0,0,0-2.6,4.6,5.74,5.74,0,0,0,3.7,5.25,5.46,5.46,0,0,0,5.88-2.15,5.35,5.35,0,0,0,1-2.79,6.06,6.06,0,0,0-.4-2.55,5.74,5.74,0,0,0-2.2-2.82,2.51,2.51,0,0,0-1.19-.48c0,.07.4.23,1,.73a6,6,0,0,1,1.88,2.76,5.07,5.07,0,0,1-.67,4.71,4.87,4.87,0,0,1-5.14,1.86,5.12,5.12,0,0,1-3.24-4.55,4.44,4.44,0,0,1,2.18-4.09,4.87,4.87,0,0,1,3.13-.72C1483.09,737.39,1483.5,737.61,1483.52,737.54Z"/><path d="M1491,857a2,2,0,0,0-.35-.17l-1.06-.43a43,43,0,0,1-4-1.79,52.29,52.29,0,0,1-12.93-9.68,106.71,106.71,0,0,1-14.8-19.33,277.41,277.41,0,0,1-14.42-26.46A469.9,469.9,0,0,1,1423,748.05c-2.31-6.67-4.09-12.11-5.34-15.86-.62-1.83-1.1-3.27-1.45-4.32l-.39-1.11c-.09-.25-.14-.38-.16-.37a2,2,0,0,0,.09.39c.09.3.19.68.32,1.14l1.32,4.37c1.16,3.78,2.88,9.24,5.12,16a439.7,439.7,0,0,0,20.31,51.26A269.48,269.48,0,0,0,1457.33,826a104.16,104.16,0,0,0,15,19.34,50.71,50.71,0,0,0,13.16,9.55,35.12,35.12,0,0,0,4,1.67l1.08.36C1490.88,857,1491,857,1491,857Z"/><path d="M1493.46,889.57a6.62,6.62,0,0,0-.8-.64c-.6-.43-1.39-1-2.36-1.72-2-1.5-5-3.69-8.51-6.54-7.08-5.67-16.38-14.15-26.39-23.83-5-4.83-9.82-9.4-14-13.78a111.66,111.66,0,0,1-10.3-12.31,69.38,69.38,0,0,1-5.64-9.33c-.61-1.14-1-2.08-1.3-2.69a4.83,4.83,0,0,0-.48-.93,6.29,6.29,0,0,0,.35,1c.26.64.6,1.6,1.17,2.76a62.76,62.76,0,0,0,5.48,9.52A106.3,106.3,0,0,0,1441,843.56c4.14,4.43,8.94,9,14,13.85a353.15,353.15,0,0,0,26.57,23.69c3.58,2.8,6.57,4.94,8.66,6.36,1,.72,1.88,1.24,2.44,1.6A4.56,4.56,0,0,0,1493.46,889.57Z"/><path d="M1532.87,1054a1.85,1.85,0,0,0-.17-.35c-.16-.25-.34-.58-.58-1-.51-.85-1.3-2.09-2.36-3.66-2.11-3.12-5.37-7.49-9.67-12.64-8.66-10.23-20.79-24.19-34.15-39.64l-34.35-39.47-10.47-11.9-2.87-3.21-.77-.82c-.17-.18-.26-.27-.27-.26a1.19,1.19,0,0,0,.22.32l.71.87,2.77,3.31,10.3,12.06,34.19,39.62,34.3,39.48c4.34,5.1,7.65,9.4,9.84,12.46,1.08,1.54,1.91,2.74,2.46,3.56.26.38.47.69.63.94A1.71,1.71,0,0,0,1532.87,1054Z"/><path class="cls-9" d="M1411,707.62c-1.21,1.91-28.38,5.09-35,12.08s-73,60.4-73,60.4l47.31,67.18,30.56-7.09Z"/><polygon class="cls-10" points="1310.91 773.65 1364 844.08 1350.21 847.28 1302.91 780.1 1310.91 773.65"/><path d="M1396.5,777.56a13.88,13.88,0,0,0,.55-2.34,27.62,27.62,0,0,0,.47-2.79c.13-1.09.34-2.33.41-3.72s.22-2.9.21-4.54-.05-3.38-.12-5.22a77.46,77.46,0,0,0-1.76-11.82,75.64,75.64,0,0,0-3.71-11.3c-.75-1.66-1.43-3.25-2.22-4.67s-1.49-2.74-2.2-3.91-1.41-2.19-2-3.09-1.17-1.64-1.65-2.23a13.17,13.17,0,0,0-1.53-1.79,15,15,0,0,0,1.3,2c.45.61,1,1.37,1.54,2.29s1.28,1.93,1.92,3.13,1.42,2.47,2.11,3.92,1.41,3,2.13,4.66a73.54,73.54,0,0,1,5.41,22.88c.1,1.82.22,3.55.19,5.17s0,3.12-.12,4.5-.2,2.62-.3,3.71-.22,2-.34,2.79A15.22,15.22,0,0,0,1396.5,777.56Z"/><path d="M1375.25,832.75c.18.08,2.81-6,5.87-13.66s5.39-13.88,5.2-14-2.82,6-5.87,13.66S1375.06,832.66,1375.25,832.75Z"/><path d="M1584.08,784c.12.06,1.25-2.14,3.4-5.47a77.62,77.62,0,0,1,9.59-12,75.35,75.35,0,0,1,11.7-9.73c3.23-2.16,5.36-3.29,5.3-3.41a6.92,6.92,0,0,0-1.55.67,46.05,46.05,0,0,0-4,2.28,65.14,65.14,0,0,0-11.94,9.64,67.79,67.79,0,0,0-9.51,12.28c-1,1.72-1.8,3.14-2.28,4.16A9,9,0,0,0,1584.08,784Z"/><polygon class="cls-10" points="1665.29 855.67 1662.02 847.28 1572.18 873.03 1575.74 883.56 1665.29 855.67"/><g class="cls-11"><path d="M1547.47,715.39c-1.24,11.55-2.58,23.46-8,33.58s-16,18.11-27,16.41c-7.28-1.14-13.46-6.27-18.42-12s-9.11-12.25-14.53-17.51c-3.4,3.58-6.83,7.2-10.91,9.88s-8.9,4.4-13.67,3.8-7.4-2.59-8.91-7.4c5.09,1.66,7.9,1.42,13,.38a34.6,34.6,0,0,0,15.35-7.42c3-2.48,4.05-6.19,7.84-6,3.5.21,6.24,3.13,8.55,5.91A101.15,101.15,0,0,0,1503,747.44c4.2,3.51,8.3,5.88,13.66,5.76,8.85-.21,16.09-7.52,21-15.29a78.83,78.83,0,0,0,9.82-23.4"/></g><path d="M1444,701a3.08,3.08,0,0,0-.15.82c-.07.55-.19,1.35-.28,2.39-.21,2.07-.42,5.08-.5,8.81a131.81,131.81,0,0,0,2.63,29l0,.24,0,.23.22.06a28.47,28.47,0,0,0,15.14-.42,34.89,34.89,0,0,0,11.22-5.54,29.84,29.84,0,0,0,6.13-6,18.7,18.7,0,0,0,1.33-1.94,3.59,3.59,0,0,0,.4-.72c-.16-.17-2.32,4-8.15,8.18a36,36,0,0,1-11.1,5.3,28.45,28.45,0,0,1-14.79.36l.27.29-.05-.24a141.94,141.94,0,0,1-2.82-28.81c0-3.71.15-6.72.27-8.8,0-1,.1-1.76.13-2.39A4.12,4.12,0,0,0,1444,701Z"/><path d="M1486.66,730.2a4.33,4.33,0,0,0,.45.88,24.93,24.93,0,0,0,1.55,2.37,61.85,61.85,0,0,0,6.92,7.68c1.56,1.51,3.31,3.12,5.21,4.82,1,.84,1.91,1.73,3,2.61a27.93,27.93,0,0,0,3.48,2.36,20.9,20.9,0,0,0,8.48,2.71,15.36,15.36,0,0,0,9.28-2.16,30.1,30.1,0,0,0,7.27-6.45,73.69,73.69,0,0,0,5.47-7.29,74.46,74.46,0,0,0,10.32-23.81c.29-1.21.47-2.16.58-2.81a5.18,5.18,0,0,0,.14-1,4.42,4.42,0,0,0-.28,1c-.16.63-.39,1.57-.72,2.76a86.18,86.18,0,0,1-3.35,9.91,78.26,78.26,0,0,1-7.24,13.58,76.84,76.84,0,0,1-5.45,7.18,29.72,29.72,0,0,1-7.1,6.29,14.83,14.83,0,0,1-8.86,2.08,20.45,20.45,0,0,1-8.22-2.59,26.58,26.58,0,0,1-3.41-2.27c-1-.84-2-1.73-3-2.56-1.91-1.68-3.68-3.25-5.26-4.73a69.44,69.44,0,0,1-7-7.47c-.76-1-1.3-1.73-1.66-2.26A5,5,0,0,0,1486.66,730.2Z"/><path class="cls-5" d="M1516.94,900.27l-10.84-16.63s-7.44-27.28-6.43-31.08,4.3-18,3.52-18.2-8.89-3.35-13.28,8.06c-2.74,7.1-3.64,16.45-3.93,22.49a5,5,0,0,1-5.9,4.82c-7.5-1.62-20-4.09-22.92-3.34-4.31,1.08-8.16,6.86-8.53,8.79s2.59,6.3,2.59,6.3-3.65,2-4.77,4.95c-.16.4-.29.8-.4,1.18a7.44,7.44,0,0,0,1.51,6.94l1.14,1.32s-4.56,1.32-5.12,4.07a17.22,17.22,0,0,0,.15,6.07l4.28,4.65a7.71,7.71,0,0,0-2.22,4.41c-.22,2.54,6.21,8.8,6.21,8.8l27.56,10.41,10.94,2.93Z"/><path class="cls-12" d="M1451.14,881.51c0,.21,4.28,1,9.55,2.17s9.55,2.14,9.6,1.93a10.3,10.3,0,0,0-2.72-1c-1.7-.51-4.08-1.13-6.73-1.69s-5.07-1-6.83-1.22A9.61,9.61,0,0,0,1451.14,881.51Z"/><path class="cls-12" d="M1448.62,895.86c-.06.2,3.21,1.43,7.29,2.75s7.45,2.21,7.51,2-3.2-1.44-7.29-2.75S1448.68,895.66,1448.62,895.86Z"/><path class="cls-12" d="M1447,910c-.08.19,3.39,2,7.74,4s8,3.47,8,3.28-3.38-2-7.74-4S1447.06,909.83,1447,910Z"/><path class="cls-5" d="M1580.46,1003.09l-101.38-71.61,25.57-48.79,92.54,50.11-10.5-52.65,62.79-19.56,15.67,90.09h0c2.43,40.08-28.1,72.44-64.91,61.92h0A65.69,65.69,0,0,1,1580.46,1003.09Z"/><path class="cls-6" d="M1610.58,961.07a5.13,5.13,0,0,0,.35-1.34,24,24,0,0,0,.35-3.78,27.66,27.66,0,0,0-2.62-12.16,26.18,26.18,0,0,0-7.65-9.51,21.36,21.36,0,0,0-3.07-2,4.42,4.42,0,0,0-1.23-.52c-.06.13,1.64,1,4,2.93a28,28,0,0,1,7.31,9.42,29.64,29.64,0,0,1,2.75,11.81C1610.83,959.11,1610.45,961.05,1610.58,961.07Z"/><path class="cls-5" d="M1350.22,847.28c-.64-.91-72.21,45-72.21,45l-22.94,110.06-33,12.75s-10.31-122.47-2.46-141.54S1307,785.9,1307,785.9Z"/><path class="cls-6" d="M1262.38,883.83c-.15.1,2.17,3.45,6.21,6.16s7.87,3.58,7.89,3.4-3.6-1.38-7.5-4S1262.55,883.67,1262.38,883.83Z"/><polygon class="cls-13" points="1436.29 847.52 1430.68 953.14 1316.31 945 1319.77 866.37 1336.42 842.77 1436.29 847.52"/><path class="cls-14" d="M1462.29,955.5c-.34,2-10,97.69-10,97.69L1282,1040.73l-28.81-4.06,13.29-89.09,20.35-5.13Z"/><path class="cls-15" d="M1286.84,942.45l175.45,13c-.34,2-10,97.7-10,97.7l-177.23-13Z"/><polygon class="cls-16" points="1333.46 946.23 1430.68 953.14 1436.29 847.52 1336.42 842.77 1333.46 946.23"/><polygon class="cls-13" points="1400.04 845.79 1397.99 878.35 1392.79 875.21 1389.9 878.35 1386.32 875.21 1380.78 878.35 1380.78 844.88 1400.04 845.79"/><polygon class="cls-14" points="1364 977.96 1364.57 948.44 1387.31 950.06 1384.87 980.04 1364 977.96"/><path class="cls-5" d="M1259.76,1069.55s-31.42-21.88-33.84-33.08-3.86-21.38-3.86-21.38l33.56-14.63-3.33,12.73s12,7.54,13.27,16.66c.82,6.09,16.37,16.5,16.37,16.5h0a12.56,12.56,0,0,1,10.8-4.86l13.07,1-8.83,21Z"/><path class="cls-6" d="M1247.48,1039.55a4.81,4.81,0,0,0,1.49.64c1,.34,2.44.68,4.16,1.27a16.79,16.79,0,0,1,5.45,3.34,27.08,27.08,0,0,0,6.72,4.49,21.72,21.72,0,0,0,14.25,1.26,7.27,7.27,0,0,0,2.38-.94,1.87,1.87,0,0,0,.87-1.83,1.36,1.36,0,0,0-.71-1.07c-.28-.1-.43,0-.43,0s.15,0,.37.16a1.28,1.28,0,0,1,.48,1,1.5,1.5,0,0,1-.8,1.43,7.17,7.17,0,0,1-2.28.76,22.24,22.24,0,0,1-13.85-1.43,27.52,27.52,0,0,1-6.59-4.35,16.75,16.75,0,0,0-5.71-3.29c-1.78-.54-3.25-.79-4.24-1A9.62,9.62,0,0,0,1247.48,1039.55Z"/><path class="cls-6" d="M1269.24,1056.53c.07.11,1.62-.86,4.29-2a37.22,37.22,0,0,1,10.9-2.86c1.1-.12,2.18-.16,3.22-.18h.2l.1-.17a35.29,35.29,0,0,1,5.85-7.26c1.69-1.61,2.82-2.44,2.76-2.53s-.34.13-.87.48a21.7,21.7,0,0,0-2.2,1.68,30.87,30.87,0,0,0-6.14,7.23l.3-.18c-1.07,0-2.17,0-3.29.17a33,33,0,0,0-11,3.13,27.25,27.25,0,0,0-3.06,1.72A4.28,4.28,0,0,0,1269.24,1056.53Z"/><path class="cls-6" d="M1260.76,1050.51c-.07.22,2.12,1,4.59,2.54s4.29,3,4.43,2.86-1.5-2-4.06-3.53S1260.8,1050.32,1260.76,1050.51Z"/><path class="cls-6" d="M1243.74,1011.16c0,.23,2.18,0,4.69.67s4.27,2,4.4,1.83-1.51-1.85-4.21-2.58S1243.68,1011,1243.74,1011.16Z"/><path class="cls-7" d="M1179.86,998.52c4.14,5.18,11.13,2.68,14.15-1s4-8.7,4.89-13.48c2-10.93,4-22.37.91-33a18.52,18.52,0,0,0-4.72-8.51c-2.37-2.2-5.81-3.32-8.78-2.18-3.52,1.34-5.44,5.26-6.76,8.94a82,82,0,0,0-4.47,34.1c.44,5.38,1.52,11,4.78,15.14"/><path class="cls-1" d="M1179.86,998.52c4.14,5.18,11.13,2.68,14.15-1s4-8.7,4.89-13.48c2-10.93,4-22.37.91-33a18.52,18.52,0,0,0-4.72-8.51c-2.37-2.2-5.81-3.32-8.78-2.18-3.52,1.34-5.44,5.26-6.76,8.94a82,82,0,0,0-4.47,34.1c.44,5.38,1.52,11,4.78,15.14"/><path class="cls-1" d="M1196,1025.2c5.73-3.83,12.76-4.92,19.53-4.39,3.64.29,7.47,1.07,10.14,3.67s3.57,7.55,1,10.25c-1.55,1.6-3.85,2-6,2.22-5.22.43-11.1,0-15,3.7-2.21,2.12-3.53,5.4-6.3,6.6s-6-.27-7.69-2.77a12.74,12.74,0,0,1-1.6-8.86A13.94,13.94,0,0,1,1196,1025.2Z"/><path class="cls-1" d="M1170.45,1007.4c3.56-5.36,3.7-12.7,1.4-18.78s-6.76-11-11.75-14.91a55,55,0,0,0-19.61-9.82,18.82,18.82,0,0,0-8.51-.71,8.87,8.87,0,0,0-6.65,5.14c-1.63,4.12.66,8.72,3,12.42a149.89,149.89,0,0,0,13.9,18.47c4.09,4.64,8.71,9.15,14.49,10.88s11.56.91,14.18-3.45"/><path d="M1186.68,1081.87a12.17,12.17,0,0,0,.12-2.54c0-1.84,0-4.16,0-6.91.06-2.91.17-6.38.62-10.19a80.91,80.91,0,0,1,2.46-12.18,44.84,44.84,0,0,1,4.84-11.27,22.12,22.12,0,0,1,6.73-7,19.85,19.85,0,0,1,6-2.58,10.85,10.85,0,0,0,2.34-.59,11,11,0,0,0-2.42.19,17.94,17.94,0,0,0-6.23,2.35,22.1,22.1,0,0,0-7.13,7.14,44.2,44.2,0,0,0-5,11.51,76.7,76.7,0,0,0-2.42,12.37,89.71,89.71,0,0,0-.4,10.3c0,2.93.16,5.29.26,6.92A13.13,13.13,0,0,0,1186.68,1081.87Z"/><path d="M1186.68,1076.56a4.36,4.36,0,0,0,0-1.17c-.08-.88-.17-2-.29-3.33-.25-2.89-.61-7.08-.9-12.26-.63-10.35-1-24.69-.7-40.51s1.3-30.15,2.43-40.45c.25-2.58.53-4.91.8-7s.47-3.8.71-5.23.34-2.44.46-3.31a6.34,6.34,0,0,0,.1-1.17,4.78,4.78,0,0,0-.3,1.13c-.17.86-.38,2-.64,3.28s-.57,3.18-.87,5.22-.66,4.36-1,6.94a397.75,397.75,0,0,0-2.71,40.51c-.31,15.86.17,30.23,1,40.6.39,5.18.85,9.36,1.22,12.24.19,1.35.35,2.44.47,3.31A5.76,5.76,0,0,0,1186.68,1076.56Z"/><path d="M1184.41,1049a23.17,23.17,0,0,0-.32-3.48c-.31-2.22-.88-5.43-1.81-9.33a128.85,128.85,0,0,0-4.08-13.46,124.09,124.09,0,0,0-6.83-15.74c-5.48-10.87-12.41-19.53-18.24-24.75a43.29,43.29,0,0,0-4.08-3.33c-.63-.46-1.18-.93-1.74-1.29l-1.55-.92a19.5,19.5,0,0,0-2.94-1.61c-.14.24,4.18,2.39,9.85,7.7a91.35,91.35,0,0,1,17.83,24.7,132,132,0,0,1,6.85,15.59c1.86,4.91,3.21,9.46,4.26,13.3s1.68,7,2.1,9.21A23.77,23.77,0,0,0,1184.41,1049Z"/><path class="cls-4" d="M1256.89,689.71c7-28.88-10.38-57.78-37.89-59.15-17.3-.87-34.12,11-41.54,29.07a54.27,54.27,0,0,0-2.69,33.36h0l.07.21c.84,3.45,2.29,6.14,3.52,9.86l15.13,42.45c1.88,5.29,7.78,6.86,11.83,3.16l32-29.22a101.59,101.59,0,0,0,8.14-7.44l.11-.11h0A52.14,52.14,0,0,0,1256.89,689.71Zm-46,9.46c-10-2.66-15.83-14.07-13.08-25.47s13.06-18.49,23-15.82S1236.72,672,1234,683.35,1220.91,701.84,1210.93,699.17Z"/><path class="cls-4" d="M1336,569.19c-2.84-19.3-21.65-31.83-40.08-25-11.59,4.31-19.59,16.13-19.83,29.07a32.7,32.7,0,0,0,6.8,20.81h0l.1.1c1.44,1.84,3.09,3.06,4.84,5l20.84,21.3a5.3,5.3,0,0,0,8.59-1.4l13.51-26.49a70.31,70.31,0,0,0,3.44-6.74l0-.1h0A33.1,33.1,0,0,0,1336,569.19ZM1308.2,587.7c-7.23,1.18-14-4-15.13-11.66s3.84-14.76,11.07-15.94,14,4,15.14,11.66S1315.44,586.52,1308.2,587.7Z"/><path class="cls-4" d="M1243.1,503.16c6-10.53.52-25.36-12.41-30.78-8.14-3.42-17.24-1.56-22.47,4.49a18.5,18.5,0,0,0-4.43,13.1h0l0,.09c.07,1.56.51,2.91.74,4.64l3.17,20A4.22,4.22,0,0,0,1213,518l18-6.25a40.48,40.48,0,0,0,4.56-1.58l.07,0h0A17.59,17.59,0,0,0,1243.1,503.16Zm-22.72-4.28c-4.48-2.85-6.19-8.53-3.81-12.68s8-5.22,12.43-2.37,6.19,8.53,3.81,12.68S1224.86,501.73,1220.38,498.88Z"/></g></svg>