<svg xmlns="http://www.w3.org/2000/svg" viewBox="0 0 40 40"><defs><style>.cls-1{fill:#ff1e23;}.cls-1,.cls-2,.cls-3,.cls-4{opacity:0.4;}.cls-2{fill:#c60d5c;}.cls-3{fill:#34d186;}.cls-4{fill:#ffc244;}.cls-5{fill:#fff;}</style></defs><g id="Layer_2" data-name="Layer 2"><g id="Character"><ellipse class="cls-1" cx="9.59" cy="9.63" rx="9.59" ry="9.63"/><ellipse class="cls-2" cx="30.41" cy="9.63" rx="9.59" ry="9.63"/><ellipse class="cls-3" cx="9.59" cy="30.37" rx="9.59" ry="9.63"/><ellipse class="cls-4" cx="30.41" cy="30.37" rx="9.59" ry="9.63"/><path class="cls-5" d="M20,8.9a6.3,6.3,0,1,0,6.22,6.3A6.27,6.27,0,0,0,20,8.9Z"/><path class="cls-5" d="M27.78,25.6a8.81,8.81,0,0,0-6.36-2.71H18.66A8.81,8.81,0,0,0,12.3,25.6a9.26,9.26,0,0,0-2.63,6.48.69.69,0,0,0,.69.69H29.72a.69.69,0,0,0,.69-.69A9.21,9.21,0,0,0,27.78,25.6Z"/></g></g></svg>