<svg xmlns="http://www.w3.org/2000/svg" viewBox="0 0 40 40"><defs><style>.cls-1{fill:#ff1e23;}.cls-1,.cls-2,.cls-3,.cls-4{opacity:0.4;}.cls-2{fill:#c60d5c;}.cls-3{fill:#34d186;}.cls-4{fill:#ffc244;}.cls-5{fill:#fff;}</style></defs><g id="Layer_2" data-name="Layer 2"><g id="Character"><ellipse class="cls-1" cx="9.59" cy="9.63" rx="9.59" ry="9.63"/><ellipse class="cls-2" cx="30.41" cy="9.63" rx="9.59" ry="9.63"/><ellipse class="cls-3" cx="9.59" cy="30.37" rx="9.59" ry="9.63"/><ellipse class="cls-4" cx="30.41" cy="30.37" rx="9.59" ry="9.63"/><path class="cls-5" d="M32,11.06a8.85,8.85,0,0,0-11.89.06h0a8.81,8.81,0,0,0-11.83-.29,7.42,7.42,0,0,0-.32,11l.25.23L19.39,32.5a1,1,0,0,0,1.4,0h0L32,22.08a7.45,7.45,0,0,0,0-11Z"/></g></g></svg>