<?xml version="1.0"?>
<svg xmlns="http://www.w3.org/2000/svg" xmlns:xlink="http://www.w3.org/1999/xlink" xmlns:svgjs="http://svgjs.com/svgjs" version="1.1" width="512" height="512" x="0" y="0" viewBox="0 0 511.999 511.999" style="enable-background:new 0 0 512 512" xml:space="preserve" class=""><g>
<g xmlns="http://www.w3.org/2000/svg">
	<g>
		<path d="M288.924,435.216c-210.865-210.861-1.215-1.217-212.087-212.085c-5.86-5.862-15.347-5.862-21.208,0L34.421,244.34    c-17.543,17.543-17.543,46.083,0,63.626l10.605,10.603l-10.605,10.605c-17.542,17.544-17.542,46.084,0.001,63.627l84.834,84.834    c17.543,17.541,46.083,17.541,63.626,0l10.603-10.605l10.605,10.605c17.543,17.541,46.083,17.541,63.626,0l21.208-21.208    C294.786,450.565,294.786,441.078,288.924,435.216z" fill="#fbbf24" data-original="#000000" style="" class=""/>
	</g>
</g>
<g xmlns="http://www.w3.org/2000/svg">
	<g>
		<path d="M477.579,204.035l-10.605-10.605l10.605-10.605c17.543-17.542,17.543-46.084,0-63.625l-84.834-84.834    c-17.543-17.543-46.083-17.543-63.626,0L318.514,44.97L307.91,34.366c-17.543-17.543-46.083-17.543-63.626,0l-21.208,21.208    c-5.862,5.862-5.862,15.349,0,21.208l212.087,212.087c5.86,5.86,15.347,5.86,21.208,0l21.208-21.21    C495.122,250.117,495.122,221.576,477.579,204.035z" fill="#fbbf24" data-original="#000000" style="" class=""/>
	</g>
</g>
<g xmlns="http://www.w3.org/2000/svg">
	<g>
		<path d="M498.786,13.158c-17.541-17.544-46.083-17.544-63.624-0.001l-10.605,10.604l63.626,63.626l10.603-10.605    C516.329,59.241,516.329,30.699,498.786,13.158z" fill="#fbbf24" data-original="#000000" style="" class=""/>
	</g>
</g>
<g xmlns="http://www.w3.org/2000/svg">
	<g>
		<path d="M23.816,424.613l-10.603,10.603c-17.543,17.543-17.543,46.083,0,63.626c17.541,17.543,46.083,17.543,63.624,0    l10.605-10.605L23.816,424.613z" fill="#fbbf24" data-original="#000000" style="" class=""/>
	</g>
</g>
<g xmlns="http://www.w3.org/2000/svg">
	<g>
		<polygon points="276.097,172.221 172.278,276.153 235.904,339.779 339.723,235.848   " fill="#fbbf24" data-original="#000000" style="" class=""/>
	</g>
</g>
<g xmlns="http://www.w3.org/2000/svg">
</g>
<g xmlns="http://www.w3.org/2000/svg">
</g>
<g xmlns="http://www.w3.org/2000/svg">
</g>
<g xmlns="http://www.w3.org/2000/svg">
</g>
<g xmlns="http://www.w3.org/2000/svg">
</g>
<g xmlns="http://www.w3.org/2000/svg">
</g>
<g xmlns="http://www.w3.org/2000/svg">
</g>
<g xmlns="http://www.w3.org/2000/svg">
</g>
<g xmlns="http://www.w3.org/2000/svg">
</g>
<g xmlns="http://www.w3.org/2000/svg">
</g>
<g xmlns="http://www.w3.org/2000/svg">
</g>
<g xmlns="http://www.w3.org/2000/svg">
</g>
<g xmlns="http://www.w3.org/2000/svg">
</g>
<g xmlns="http://www.w3.org/2000/svg">
</g>
<g xmlns="http://www.w3.org/2000/svg">
</g>
</g></svg>
