<?xml version="1.0"?>
<svg xmlns="http://www.w3.org/2000/svg" xmlns:xlink="http://www.w3.org/1999/xlink" xmlns:svgjs="http://svgjs.com/svgjs" version="1.1" width="512" height="512" x="0" y="0" viewBox="0 0 512 512" style="enable-background:new 0 0 512 512" xml:space="preserve" class=""><g><g xmlns="http://www.w3.org/2000/svg"><g><g><g><path d="m404.254 4.393-44.385 44.385 42.426 42.427 44.132-44.132h18.573c8.284 0 15-6.716 15-15v-17.073c0-8.284-6.716-15-15-15h-50.14c-3.978 0-7.793 1.58-10.606 4.393z" fill="#dc2626" data-original="#000000" style="" class=""/></g><path d="m377.677 151.172 10.473-10.473c5.858-5.858 5.858-15.355 0-21.213l-56.568-56.569c-5.858-5.858-15.355-5.858-21.213 0l-10.473 10.472z" fill="#dc2626" data-original="#000000" style="" class=""/><g><path d="m152.606 319.569h68.93v68.931h-68.93z" fill="#dc2626" data-original="#000000" style="" class=""/><path d="m362.426 178.346-89.704-89.705c-7.556-7.555-17.6-11.716-28.285-11.716h-189.437c-30.376 0-55 24.624-55 55v325.075c0 30.376 24.624 55 55 55h264.142c30.376 0 55-24.624 55-55v-250.37c0-10.685-4.161-20.729-11.716-28.284zm-85.284 244.546c5.858 5.858 5.858 15.355 0 21.213-2.929 2.929-6.768 4.394-10.606 4.394s-7.678-1.464-10.606-4.393l-25.607-25.607h-86.503l-25.606 25.606c-2.929 2.929-6.768 4.394-10.606 4.394s-7.678-1.464-10.606-4.394c-5.858-5.858-5.858-15.355 0-21.213l25.606-25.606v-86.505l-25.606-25.606c-5.858-5.858-5.858-15.355 0-21.213 5.857-5.858 15.355-5.858 21.213 0l25.606 25.606h86.503l25.607-25.607c5.858-5.857 15.356-5.857 21.213 0 5.858 5.858 5.858 15.355 0 21.213l-25.606 25.606v86.505zm-187.572-226.824c-16.331 0-29.57-13.239-29.57-29.57 0-16.331 13.239-29.57 29.57-29.57h146.582l59.141 59.141h-205.723z" fill="#dc2626" data-original="#000000" style="" class=""/></g></g></g><g><g><g><g><path d="m474.5 251c-20.678 0-37.5-16.823-37.5-37.5 0-5.308 1.508-14.663 14.549-34.536 6.501-9.906 12.926-17.944 13.197-18.282 2.373-2.96 5.961-4.683 9.754-4.683s7.381 1.722 9.754 4.683c.27.337 6.696 8.375 13.197 18.282 13.041 19.873 14.549 29.228 14.549 34.536 0 20.677-16.822 37.5-37.5 37.5z" fill="#dc2626" data-original="#000000" style="" class=""/></g></g></g></g></g></g></svg>
