<?xml version="1.0"?>
<svg xmlns="http://www.w3.org/2000/svg" xmlns:xlink="http://www.w3.org/1999/xlink" xmlns:svgjs="http://svgjs.com/svgjs" version="1.1" width="512" height="512" x="0" y="0" viewBox="0 0 512 512" style="enable-background:new 0 0 512 512" xml:space="preserve" class=""><g><g xmlns="http://www.w3.org/2000/svg"><path d="m82.982 512 84.412-89.48-7.634-1.281c-32.529-5.459-61.04-26.185-76.268-55.443l-6.773-13.014c-.606-1.164-1.251-2.303-1.915-3.431l-74.804 74.805 60.844 24.884z" fill="#db2777" data-original="#000000" style="" class=""/><path d="m429.018 512-84.412-89.48 7.634-1.281c32.529-5.459 61.04-26.185 76.268-55.443l6.773-13.014c.606-1.164 1.251-2.303 1.915-3.431l74.804 74.805-60.844 24.884z" fill="#db2777" data-original="#000000" style="" class=""/><g><path d="m256 170.994-15.528 17.735-21.666 9.289 12.069 20.248 2.138 23.475 22.987-5.22 22.987 5.22 2.138-23.475 12.069-20.248-21.666-9.289z" fill="#db2777" data-original="#000000" style="" class=""/><path d="m401.558 352.325 6.887-13.168c4.805-9.188 10.921-17.603 18.18-25.009l10.437-10.646c16.475-16.808 24.262-40.743 20.83-64.027l-2.174-14.75c-1.512-10.26-1.507-20.662.015-30.919l2.18-14.698c3.458-23.309-4.327-47.272-20.823-64.1l-10.347-10.555c-7.309-7.456-13.459-15.933-18.279-25.194l-6.773-13.013c-10.906-20.954-31.326-35.798-54.622-39.708l-14.435-2.422c-10.332-1.734-20.323-4.985-29.697-9.662l-13.098-6.534c-10.579-5.28-22.19-7.92-33.798-7.92-11.585 0-23.168 2.628-33.732 7.886l-13.134 6.537c-9.345 4.652-19.305 7.887-29.603 9.616l-14.578 2.446c-23.239 3.901-43.632 18.696-54.552 39.577l-6.887 13.168c-4.805 9.188-10.921 17.603-18.18 25.009l-10.437 10.646c-16.475 16.808-24.262 40.743-20.83 64.027l2.174 14.75c1.512 10.26 1.507 20.662-.015 30.919l-2.18 14.698c-3.458 23.309 4.327 47.272 20.823 64.1l10.347 10.555c7.309 7.456 13.459 15.933 18.279 25.194l6.773 13.013c10.906 20.954 31.326 35.798 54.622 39.708l14.435 2.422c10.332 1.734 20.323 4.985 29.697 9.662l13.098 6.534c21.137 10.546 46.381 10.558 67.529.033l13.134-6.537c9.345-4.652 19.305-7.887 29.603-9.616l14.578-2.446c23.24-3.9 43.633-18.695 54.553-39.576zm-145.558 7.727c-83.184 0-150.858-67.675-150.858-150.858s67.674-150.859 150.858-150.859 150.858 67.675 150.858 150.858-67.674 150.859-150.858 150.859z" fill="#db2777" data-original="#000000" style="" class=""/><path d="m256 88.335c-66.642 0-120.858 54.217-120.858 120.858s54.216 120.859 120.858 120.859 120.858-54.217 120.858-120.858-54.216-120.859-120.858-120.859zm54.384 139.438-4.628 50.812-49.756-11.3-49.756 11.3-4.628-50.812-26.123-43.829 46.895-20.104 33.612-38.387 33.611 38.388 46.895 20.104z" fill="#db2777" data-original="#000000" style="" class=""/></g></g></g></svg>
